<svg xmlns="http://www.w3.org/2000/svg" xlink="http://www.w3.org/1999/xlink" viewBox="0 0 92 159" id="svg198288380"><path d="M 71.252 2.672 C 68.409 6.273 66.041 14.23 66.041 20.388 C 65.946 26.072 66.419 26.925 71.536 30.051 C 72.957 30.903 72.957 31.661 71.631 39.24 C 70.873 43.692 69.073 50.987 67.746 55.345 C 65.282 63.018 57.324 79.786 56.091 79.786 C 55.808 79.691 52.775 77.607 49.364 74.954 C 39.037 67.092 34.109 65.102 24.729 65.102 C 15.633 65.102 11.464 66.713 5.874 72.397 C -0.38 78.649 -1.612 86.891 2.368 95.417 C 10.137 112.279 31.836 112.469 50.975 96.08 L 57.607 90.301 L 62.629 96.364 C 72.578 108.679 80.253 123.648 84.422 138.994 C 89.917 158.889 90.202 159.646 91.339 158.51 C 92.855 156.994 90.865 144.015 87.17 131.7 C 83.759 120.332 75.894 104.606 69.262 95.89 C 59.882 83.67 60.355 86.133 65.472 77.228 C 70.967 67.66 74.568 57.05 76.463 44.45 C 77.316 39.145 78.168 33.84 78.358 32.703 C 78.642 31.282 79.684 30.335 81.39 29.956 C 89.823 28.156 90.391 26.261 85.938 14.419 C 81.011 1.251 75.705 -3.011 71.252 2.672 Z M 34.773 73.154 C 39.51 75.239 52.207 84.238 52.207 85.47 C 52.207 85.849 49.838 88.406 46.901 91.154 C 33.73 103.09 18.76 105.648 10.801 97.217 C 4.642 90.586 4.642 82.154 10.801 76.091 C 17.055 70.123 25.582 68.986 34.772 73.154 Z" fill="var(--token-9760a20c-2452-4ec9-b3bc-eaeea911af35, rgb(9, 176, 145)) /* {&quot;name&quot;:&quot;Secondary 2 - Mid&quot;} */"/></svg>