<svg xmlns="http://www.w3.org/2000/svg" xlink="http://www.w3.org/1999/xlink" viewBox="0 0 61 105" id="svg3409466755"><path d="M 6.294 85.984 C 5.028 88.122 10.013 90.893 27.497 97.862 C 46.011 105.226 50.363 106.176 50.917 103.246 C 51.629 99.208 8.43 82.579 6.294 85.984 Z M 32.086 1.809 C 25.441 -1.517 24.016 -0.804 12.386 11.628 C 0.36 24.456 -1.38 27.228 0.835 29.683 C 4.87 34.117 9.142 31.742 24.808 16.617 C 36.359 5.452 36.992 4.264 32.086 1.809 Z M 57.404 43.065 C 52.657 40.611 50.442 40.69 41.976 43.541 C 16.896 52.093 -1.697 56.21 7.639 60.803 C 11.436 62.703 16.263 61.595 45.932 52.567 C 62.31 47.5 63.734 46.391 57.404 43.065 Z" fill="var(--token-9760a20c-2452-4ec9-b3bc-eaeea911af35, rgb(158, 194, 134)) /* {&quot;name&quot;:&quot;Secondary 2 - Mid&quot;} */"/></svg>