<svg xmlns="http://www.w3.org/2000/svg" xlink="http://www.w3.org/1999/xlink" viewBox="0 0 152 145" id="svg2303486162"><path d="M 139.518 1.738 C 139.518 2.629 140.939 7.437 142.625 12.514 C 146.71 24.448 146.622 32.285 142.271 37.628 L 140.672 39.587 L 138.541 35.669 C 134.545 28.455 127.885 25.873 122.024 29.524 C 118.206 31.839 117.052 34.333 117.585 39.142 C 118.384 46.088 123.8 51.165 131.526 52.234 L 135.966 52.857 L 135.966 58.289 C 135.877 75.834 125.843 95.515 113.855 101.66 C 111.724 102.729 109.859 103.442 109.682 103.174 C 109.504 102.996 110.126 99.256 111.191 94.892 C 115.72 75.656 108.35 61.852 97.161 68.709 C 91.567 72.093 87.749 80.732 87.926 89.459 C 88.104 97.207 89.613 101.304 94.053 105.846 C 98.582 110.566 98.582 110.566 91.567 119.294 C 83.309 129.624 69.811 138.263 61.82 138.352 C 59.245 138.441 57.202 137.907 56.403 137.105 C 55.16 135.858 55.515 135.235 59.955 131.049 C 66.348 124.993 70.433 116.889 70.611 110.21 C 70.611 104.777 69.545 102.907 65.105 101.037 C 58.978 98.454 51.43 103.174 46.458 112.614 C 44.326 116.711 44.06 118.225 44.06 126.062 L 43.971 134.879 L 40.508 136.126 C 35.18 138.085 24.613 137.372 19.641 134.79 C 11.383 130.426 5.877 123.034 4.9 115.019 C 4.634 112.169 4.989 105.935 5.789 99.968 C 6.588 94.358 7.031 89.638 6.765 89.37 C 4.456 87.055 0.105 102.017 0.105 112.347 C 0.105 121.876 1.881 126.597 8.008 132.741 C 17.599 142.627 28.521 145.477 41.307 141.736 C 46.724 140.044 48.589 139.866 49.743 140.668 C 54.361 143.963 56.758 144.764 61.997 144.764 C 73.541 144.675 90.501 132.92 100.536 117.958 C 103.732 113.327 105.597 111.367 107.373 110.922 C 117.23 108.785 123.978 104.421 130.105 96.228 C 138.452 85.096 142.004 74.409 142.803 58.467 C 143.247 48.76 143.514 47.513 145.556 45.109 C 151.328 38.163 153.459 28.277 150.972 19.282 C 149.818 15.096 144.401 3.875 142.448 1.649 C 140.583 -0.311 139.518 -0.311 139.518 1.738 Z M 130.371 36.827 C 134.634 41.547 135.078 45.554 131.526 45.554 C 128.862 45.554 124.422 40.834 124.422 38.163 C 124.422 34.511 127.619 33.888 130.371 36.827 Z M 104.798 76.368 C 106.751 80.109 106.396 90.261 104.087 96.673 C 103.111 99.523 102.045 102.106 101.779 102.462 C 100.713 103.442 98.227 101.037 96.273 97.207 C 92.81 90.528 93.965 81.801 98.848 76.19 C 101.956 72.627 103.022 72.717 104.798 76.368 Z M 63.507 106.648 C 65.727 107.449 65.283 113.149 62.619 118.403 C 60.577 122.5 53.384 130.159 51.608 130.159 C 50.809 130.159 49.832 126.953 49.832 124.281 C 49.832 119.828 52.762 112.703 56.048 109.497 C 59.333 106.113 60.754 105.579 63.507 106.648 Z" fill="var(--token-9760a20c-2452-4ec9-b3bc-eaeea911af35, rgb(9, 176, 145)) /* {&quot;name&quot;:&quot;Secondary 2 - Mid&quot;} */"/></svg>