<svg xmlns="http://www.w3.org/2000/svg" xlink="http://www.w3.org/1999/xlink" viewBox="0 0 55 45" id="svg1432442713"><path d="M 39.169 34.784 C 37.527 34.98 35.872 35.295 34.269 35.655 C 33.675 35.786 33.102 35.989 32.508 36.127 C 30.431 36.65 28.36 37.253 26.328 37.973 C 25.425 38.288 24.541 38.628 23.69 39.048 C 22.562 39.513 21.474 40.076 20.3 40.436 C 19.931 40.554 19.858 40.279 20.03 39.886 C 20.287 39.353 20.714 38.918 21.243 38.648 C 23.496 37.479 25.875 36.565 28.333 35.923 C 29.065 35.714 29.81 35.491 30.556 35.268 C 31.301 35.046 32.053 34.797 32.805 34.613 C 34.46 34.162 36.149 33.827 37.837 33.526 C 38.886 33.382 39.928 33.205 40.99 33.127 C 42.587 32.973 44.193 32.914 45.798 32.95 C 46.418 32.989 47.037 32.95 47.658 33.022 C 48.283 33.057 48.906 33.125 49.524 33.225 C 49.794 33.277 50.065 33.31 50.342 33.369 C 50.716 33.43 51.067 33.591 51.358 33.834 C 51.525 33.969 51.631 34.165 51.654 34.378 C 51.663 34.471 51.663 34.566 51.654 34.659 C 51.654 34.934 51.153 35.039 50.46 34.967 C 48.363 34.578 46.23 34.406 44.096 34.456 C 42.443 34.491 40.793 34.627 39.156 34.862 Z M 40.918 25.477 C 40.698 25.721 40.453 25.94 40.186 26.132 C 40.035 26.237 39.881 26.337 39.724 26.433 C 39.565 26.518 39.4 26.591 39.229 26.649 C 38.831 26.805 38.402 26.868 37.976 26.832 C 37.587 26.795 37.207 26.688 36.855 26.518 C 36.372 26.282 35.91 26.003 35.476 25.686 L 34.329 24.848 C 33.788 24.448 33.195 24.088 32.706 23.741 C 30.804 22.466 28.759 21.415 26.612 20.61 C 25.641 20.249 24.645 19.958 23.631 19.739 C 22.325 19.504 21.035 19.192 19.767 18.803 C 19.377 18.665 19.483 18.278 19.898 17.918 C 20.439 17.439 21.155 17.202 21.877 17.263 C 23.284 17.418 24.671 17.712 26.019 18.141 C 27.381 18.552 28.705 19.081 29.976 19.719 C 31.578 20.443 33.122 21.288 34.593 22.248 C 35.345 22.791 36.09 23.348 36.822 23.852 C 37.141 24.086 37.481 24.29 37.838 24.461 C 38.044 24.57 38.291 24.57 38.497 24.461 C 38.585 24.422 38.667 24.371 38.741 24.311 C 38.826 24.265 38.904 24.208 38.972 24.141 C 39.148 23.98 39.307 23.803 39.447 23.61 C 39.772 23.198 40.064 22.759 40.317 22.3 C 41.129 20.839 41.894 19.261 42.685 17.715 C 43.259 16.466 43.92 15.258 44.664 14.1 C 44.817 13.825 45.016 13.577 45.251 13.366 C 46.161 12.593 46.57 12.495 47.084 12.75 C 47.2 12.799 47.31 12.858 47.414 12.927 C 47.724 13.183 47.572 13.707 47.183 14.309 C 46.958 14.814 46.698 15.302 46.405 15.77 C 46.121 16.242 45.838 16.713 45.567 17.224 C 45.02 18.22 44.486 19.281 43.951 20.381 C 43.549 21.2 43.147 22.025 42.692 22.883 C 42.215 23.816 41.638 24.694 40.97 25.503 Z" fill="var(--token-9760a20c-2452-4ec9-b3bc-eaeea911af35, rgb(158, 194, 134)) /* {&quot;name&quot;:&quot;Secondary 2 - Mid&quot;} */"/><path d="M 4.056 10.163 C 6.032 9.258 8.053 8.454 10.111 7.753 C 12.114 7.048 14.135 6.393 16.172 5.788 C 17.656 5.343 19.107 4.806 20.597 4.413 C 25.871 3.014 31.222 1.92 36.624 1.138 C 39.031 0.817 41.445 0.483 43.879 0.254 C 45.448 0.096 47.024 0.024 48.601 0.037 C 49.405 0.061 50.207 0.133 51.002 0.254 C 51.812 0.405 52.6 0.653 53.35 0.994 C 54.299 1.446 53.904 2.068 52.954 2.664 C 52.391 3.025 51.803 3.345 51.193 3.62 C 50.488 3.905 49.731 4.043 48.97 4.026 C 46.015 4.015 43.062 4.203 40.133 4.59 C 37.145 4.976 34.111 5.33 31.044 5.775 C 27.377 6.292 23.69 7.471 20.05 8.519 C 16.053 9.685 12.063 10.943 8.231 12.449 C 7.314 12.823 6.404 13.215 5.54 13.635 L 4.881 13.956 L 4.656 14.08 L 4.485 14.172 C 4.287 14.303 3.997 14.447 4.01 14.722 C 3.997 14.861 3.997 15.002 4.01 15.141 L 4.01 15.357 C 4.01 15.429 4.043 15.6 4.069 15.724 C 4.406 17.512 4.96 19.411 5.481 21.278 L 7.116 26.917 C 7.954 29.852 8.93 32.714 9.392 35.838 C 9.509 36.532 9.588 37.232 9.629 37.934 C 9.649 38.503 9.62 39.073 9.543 39.637 C 9.46 40.038 9.315 40.425 9.115 40.783 C 8.844 41.293 8.362 41.66 7.796 41.785 C 7.583 41.861 7.361 41.912 7.136 41.936 C 6.78 41.936 6.543 41.648 6.365 41.196 C 6.144 40.587 5.987 39.957 5.896 39.316 C 5.661 36.808 5.206 34.325 4.538 31.895 C 3.878 29.328 3.106 26.695 2.295 24.036 C 1.853 22.575 1.405 21.095 0.976 19.562 C 0.772 18.789 0.561 18.016 0.383 17.185 L 0.251 16.53 L 0.191 16.196 L 0.125 15.75 C 0.02 15.014 0.02 14.266 0.125 13.53 L 0.237 13.163 C 0.237 13.111 0.237 13.032 0.33 12.993 L 0.396 12.816 C 0.499 12.579 0.637 12.358 0.805 12.161 C 1.159 11.766 1.565 11.42 2.012 11.133 C 2.229 10.975 2.447 10.845 2.671 10.713 L 3.179 10.484 C 3.45 10.336 3.725 10.194 4.003 10.058 L 4.056 10.163 Z M 36.01 37.338 C 34.935 37.508 33.86 37.751 32.785 37.993 L 29.56 38.779 C 28.769 38.989 28.017 39.284 27.225 39.487 C 25.84 39.847 24.449 40.233 23.064 40.62 C 21.679 41.006 20.294 41.445 18.922 41.89 C 17.702 42.303 16.515 42.794 15.347 43.292 C 13.881 44.025 12.331 44.579 10.73 44.942 C 10.223 45.034 10.071 44.517 10.242 43.822 C 10.453 42.968 10.986 42.227 11.733 41.753 C 13.209 40.937 14.753 40.251 16.35 39.703 C 17.936 39.102 19.554 38.589 21.197 38.164 C 22.18 37.895 23.176 37.567 24.152 37.207 C 25.128 36.847 26.131 36.454 27.107 36.153 C 28.2 35.817 29.299 35.5 30.404 35.203 L 32.086 34.777 L 33.774 34.397 C 34.467 34.234 35.166 34.109 35.872 33.985 C 36.577 33.86 37.277 33.723 37.989 33.631 C 40.143 33.315 42.315 33.14 44.492 33.107 C 46.174 33.035 47.849 32.956 49.537 33.022 C 49.907 33.022 50.269 33.022 50.639 33.081 C 51.958 33.382 52.347 33.736 52.459 34.614 C 52.497 34.795 52.523 34.979 52.538 35.164 C 52.538 35.727 51.879 36.225 50.909 36.33 C 50.551 36.385 50.19 36.423 49.828 36.441 L 44.591 36.441 C 43.885 36.441 43.179 36.5 42.474 36.539 C 40.322 36.69 38.183 36.981 36.07 37.41 Z" fill="var(--token-9760a20c-2452-4ec9-b3bc-eaeea911af35, rgb(158, 194, 134)) /* {&quot;name&quot;:&quot;Secondary 2 - Mid&quot;} */"/><path d="M 41.887 24.18 C 41.729 24.442 41.55 24.678 41.386 24.927 C 41.214 25.157 41.026 25.376 40.825 25.582 L 40.528 25.837 L 40.185 26.001 L 39.842 26.164 C 39.776 26.184 39.713 26.215 39.658 26.256 L 39.466 26.256 C 38.94 26.294 38.412 26.22 37.917 26.04 C 37.382 25.844 36.841 25.555 36.367 25.326 L 34.612 24.422 C 34.052 24.141 33.498 23.865 32.93 23.603 C 32.113 23.224 31.249 22.949 30.411 22.614 C 27.491 21.305 24.443 20.298 21.316 19.608 C 19.917 19.327 18.496 19.169 17.069 19.137 C 16.159 19.097 15.248 19.137 14.345 19.137 C 13.427 19.113 12.511 19.041 11.601 18.921 C 11.027 18.829 11.047 18.22 11.502 17.539 C 12.069 16.677 12.969 16.084 13.989 15.901 C 14.981 15.798 15.98 15.774 16.976 15.829 C 17.972 15.875 18.955 15.953 19.951 16.078 C 21.933 16.331 23.884 16.783 25.774 17.427 C 28.024 18.2 30.444 18.737 32.673 19.68 C 33.893 20.191 35.1 20.754 36.274 21.344 L 37.145 21.796 L 37.58 22.019 L 37.745 22.104 L 37.851 22.169 L 38.233 22.379 L 38.431 22.484 C 38.497 22.484 38.576 22.556 38.642 22.484 C 38.782 22.377 38.9 22.246 38.992 22.097 L 39.15 21.874 L 39.229 21.757 L 39.368 21.527 L 40.555 19.477 C 41.755 17.381 43.081 15.312 44.472 13.301 C 45.516 11.669 46.69 10.123 47.981 8.677 C 48.283 8.354 48.604 8.05 48.944 7.766 C 49.222 7.538 49.522 7.338 49.841 7.17 C 50.075 7.06 50.328 6.994 50.586 6.974 C 51.022 6.966 51.437 7.156 51.714 7.491 C 51.881 7.64 52.033 7.805 52.169 7.982 C 52.571 8.592 52.281 9.345 51.648 10.065 C 49.472 12.248 47.567 14.682 45.976 17.316 C 45.316 18.351 44.703 19.412 44.077 20.505 L 43.14 22.163 L 42.658 23.014 L 41.959 24.239 Z M 49.603 19.831 L 50.447 17.211 C 50.553 16.89 50.572 16.556 50.685 16.248 C 51.113 15.148 51.522 14.041 52.063 12.973 C 52.3 12.502 52.452 12.004 52.676 11.519 C 52.793 11.193 52.938 10.877 53.112 10.576 C 53.198 10.42 53.3 10.273 53.415 10.137 C 53.551 10 53.696 9.873 53.85 9.757 C 54.048 9.613 54.286 9.908 54.51 10.288 C 54.614 10.476 54.707 10.671 54.787 10.871 C 54.868 11.028 54.898 11.207 54.873 11.382 C 54.636 12.555 54.296 13.706 53.857 14.82 C 53.587 15.553 53.414 16.317 53.342 17.093 L 52.762 19.654 C 52.655 20.18 52.558 20.709 52.472 21.239 C 52.297 22.032 52.187 22.838 52.142 23.649 C 52.151 23.966 52.185 24.281 52.241 24.592 C 52.274 24.907 52.32 25.247 52.347 25.522 C 52.37 25.655 52.37 25.79 52.347 25.922 C 52.254 26.413 52.023 26.577 51.351 26.675 L 50.896 26.747 C 50.431 26.799 49.976 26.59 49.715 26.204 C 49.358 25.649 49.112 25.03 48.99 24.383 C 48.917 23.771 48.917 23.154 48.99 22.542 C 49.083 21.634 49.246 20.734 49.478 19.851 Z" fill="var(--token-9760a20c-2452-4ec9-b3bc-eaeea911af35, rgb(158, 194, 134)) /* {&quot;name&quot;:&quot;Secondary 2 - Mid&quot;} */"/></svg>