<svg xmlns="http://www.w3.org/2000/svg" xlink="http://www.w3.org/1999/xlink" viewBox="0 0 143 135" id="svg2239691436"><path d="M 7.473 2.296 C 2.471 10.465 0.076 19.409 0.076 30.606 C 0.076 40.677 1.203 45.607 5.43 54.198 C 7.825 59.128 9.516 61.381 15.293 67.156 C 21.915 73.776 22.338 74.34 23.042 78.072 C 25.649 92.579 41.007 108.213 62.353 118.213 C 81.656 127.228 113.006 134.552 133.366 134.763 C 140.34 134.833 142.102 134.622 142.665 133.777 C 143.651 132.158 142.454 131.876 131.745 130.96 C 106.666 128.988 81.656 122.791 63.339 114.058 C 49.249 107.439 37.626 98.072 31.496 88.495 C 29.101 84.621 26.142 77.509 26.706 76.875 C 26.917 76.663 29.383 77.227 32.201 78.072 C 38.259 79.832 41.782 79.903 46.573 78.495 C 51.574 77.016 54.674 73.635 55.167 69.058 C 55.59 64.41 55.026 62.508 52.42 59.551 C 49.461 56.17 45.234 54.691 39.668 55.043 C 32.271 55.536 27.058 59.057 24.522 65.184 C 23.817 66.875 22.831 68.283 22.268 68.283 C 20.858 68.283 13.391 60.255 10.643 55.677 C 2.542 42.437 1.696 23.705 8.389 7.296 C 9.798 3.916 10.714 0.888 10.502 0.606 C 9.798 -0.521 8.953 -0.028 7.473 2.296 Z M 44.882 59.128 C 48.193 60.114 51.786 64.128 51.786 66.945 C 51.786 72.438 47.418 75.678 39.809 75.607 C 33.469 75.607 27.128 72.79 27.128 69.973 C 27.128 66.452 30.44 62.015 34.385 60.114 C 38.4 58.283 40.866 58.072 44.882 59.128 Z" fill="var(--token-9760a20c-2452-4ec9-b3bc-eaeea911af35, rgb(9, 176, 145)) /* {&quot;name&quot;:&quot;Secondary 2 - Mid&quot;} */"/></svg>