<svg xmlns="http://www.w3.org/2000/svg" xlink="http://www.w3.org/1999/xlink" viewBox="0 0 97 194" id="svg1335187552"><path d="M 7.918 2.279 C 1.597 4.379 0.894 5.079 0.473 9.28 C 0.051 12.921 1.176 15.582 5.811 21.603 C 16.486 35.746 25.616 37.566 16.204 23.704 C 13.395 19.642 11.569 16.002 11.991 15.582 C 13.536 14.041 30.111 19.362 39.662 24.404 C 67.755 39.107 87 69.354 81.802 90.358 C 79.976 97.08 78.01 100.581 75.903 100.581 C 75.2 100.581 72.531 98.76 70.003 96.38 C 58.204 86.158 42.893 83.777 37.836 91.339 C 34.185 96.66 40.084 109.823 48.512 115.424 C 53.85 118.785 62.278 119.485 69.582 116.964 L 76.043 114.724 L 80.819 124.806 C 89.949 143.71 92.337 161.494 87.983 177.598 C 86.859 181.799 85.876 187.12 85.876 189.5 L 86.016 193.702 L 88.685 190.481 C 92.056 186.42 95.287 176.058 96.551 165.135 C 97.815 154.073 94.163 136.708 87.281 121.165 L 81.802 108.843 L 85.595 101.701 C 100.905 72.295 73.374 26.644 32.64 13.761 C 27.583 12.081 22.526 10.4 21.402 10.12 C 19.997 9.701 20.7 8.58 23.93 6.619 C 26.459 5.079 28.285 3.119 27.863 2.139 C 27.021 -0.522 15.643 -0.382 7.918 2.279 Z M 62.699 100.3 C 69.441 105.062 70.003 108.982 64.244 110.523 C 57.923 112.204 49.776 108.282 46.545 101.841 C 43.174 95.259 43.174 95.259 46.264 94.7 C 50.057 93.859 56.659 95.96 62.699 100.3 Z" fill="var(--token-9760a20c-2452-4ec9-b3bc-eaeea911af35, rgb(9, 176, 145)) /* {&quot;name&quot;:&quot;Secondary 2 - Mid&quot;} */"/></svg>