<svg xmlns="http://www.w3.org/2000/svg" xlink="http://www.w3.org/1999/xlink" viewBox="0 0 110 101" id="svg739602450"><path d="M 33.592 63.794 C 34.694 66.758 35.735 69.759 36.728 72.771 C 37.079 73.877 37.611 74.921 37.938 76.051 C 38.507 78.019 38.992 80.023 39.439 82.028 C 39.888 84.032 40.178 86.097 40.456 88.102 C 40.723 89.9 41.05 91.746 41.34 93.495 C 41.77 95.808 41.77 98.18 41.34 100.492 C 41.183 101.221 40.335 101.1 39.403 100.492 C 38.329 99.865 37.514 98.875 37.103 97.698 C 36.885 96.629 36.558 95.573 36.328 94.504 L 35.686 91.296 C 35.263 89.146 34.815 86.984 34.476 84.761 C 33.945 82.048 33.134 79.397 32.055 76.853 C 31.05 73.974 29.972 71.083 28.81 68.216 C 28.096 66.442 27.37 64.669 26.594 62.92 C 25.384 60.259 24.294 57.55 22.963 54.926 C 22.466 53.894 21.825 52.934 21.304 51.902 C 20.76 50.869 20.275 49.807 19.851 48.719 C 19.614 48.205 19.447 47.662 19.355 47.103 C 19.355 46.824 19.355 46.569 19.294 46.338 C 19.234 46.107 19.294 45.852 19.294 45.646 C 19.324 45.272 19.441 44.91 19.633 44.589 C 19.994 44.072 20.558 43.736 21.183 43.666 C 21.437 43.607 21.697 43.583 21.958 43.593 C 22.359 43.692 22.727 43.897 23.023 44.188 L 23.653 44.65 C 23.86 44.805 24.04 44.994 24.185 45.208 C 25.214 46.423 26.219 48.039 27.345 49.642 C 28.471 51.246 29.113 53.189 29.996 55.06 C 31.207 57.866 32.418 60.806 33.628 63.733 Z M 26.134 42.499 C 25.928 42.754 25.614 42.366 25.299 41.637 C 25.183 41.284 25.122 40.915 25.117 40.544 C 25.179 40.32 25.256 40.101 25.347 39.888 C 25.347 39.815 26.376 38.965 26.679 38.588 C 26.963 38.277 27.299 38.018 27.672 37.822 C 28.386 37.41 29.076 36.924 29.79 36.474 C 29.949 36.371 30.134 36.316 30.323 36.316 C 30.975 36.294 31.597 36.03 32.066 35.575 C 32.151 35.502 32.26 35.478 32.272 35.247 C 32.284 35.016 33.737 33.887 33.991 33.911 C 34.633 33.996 35.202 33.911 35.832 33.911 C 35.928 33.911 35.965 33.814 36.146 34.02 C 36.57 34.531 36.679 34.361 36.848 34.324 C 37.116 34.265 37.392 34.265 37.659 34.324 C 37.898 34.461 38.114 34.633 38.301 34.834 C 38.563 35.204 38.764 35.614 38.894 36.049 C 38.995 36.417 39.163 36.764 39.391 37.069 L 39.573 37.434 C 39.499 38.276 39.277 39.098 38.919 39.863 C 38.919 39.973 37.078 41.078 36.897 41.2 C 36.715 41.321 36.619 41.2 36.461 41.2 C 36.304 41.2 34.936 42.086 34.851 42.074 C 34.488 42.074 34.221 42.378 33.701 42.074 C 33.604 42.001 33.543 42.074 33.483 42.074 C 32.881 42.25 32.257 42.34 31.631 42.341 C 31.324 42.397 31.021 42.47 30.723 42.56 C 30.658 42.571 30.593 42.571 30.529 42.56 L 30.299 42.56 C 29.559 42.673 28.827 42.835 28.108 43.046 C 27.938 43.107 27.018 42.876 26.824 42.961 C 26.631 43.046 26.207 42.39 26.134 42.499 Z M 22.368 37.239 C 22.464 37.531 21.968 37.592 21.157 37.47 C 20.805 37.388 20.472 37.24 20.176 37.033 C 20.029 36.846 19.891 36.651 19.764 36.45 C 19.764 36.352 19.644 34.895 19.534 34.36 C 19.456 33.894 19.456 33.417 19.534 32.951 C 19.608 32.032 19.746 31.118 19.946 30.218 C 19.993 30.014 20.098 29.828 20.249 29.683 C 20.718 29.148 21.003 28.475 21.06 27.764 C 21.111 27.629 21.078 27.477 20.975 27.376 C 20.874 26.595 21.013 25.802 21.375 25.104 C 21.913 24.681 22.423 24.222 22.9 23.731 C 22.973 23.671 22.9 23.561 23.179 23.561 C 23.748 23.561 23.711 23.355 23.82 23.197 C 24.005 22.962 24.236 22.767 24.498 22.626 C 24.724 22.555 24.955 22.502 25.188 22.468 C 25.498 22.458 25.806 22.524 26.084 22.662 C 26.254 22.832 26.581 22.808 26.847 22.857 L 27.137 22.929 C 27.398 23.274 27.637 23.635 27.852 24.01 C 28.014 24.243 28.144 24.496 28.239 24.763 C 28.303 24.884 28.344 25.016 28.36 25.152 C 28.36 25.152 28.215 27.448 28.191 27.764 C 28.167 28.08 28.021 27.983 27.9 28.08 C 27.779 28.177 27.585 29.902 27.537 29.963 C 27.343 30.279 27.379 30.68 26.81 30.862 C 26.729 30.884 26.674 30.96 26.677 31.044 C 26.448 31.641 26.134 32.202 25.745 32.708 C 25.576 32.988 25.503 33.303 25.333 33.583 C 25.333 33.583 25.213 33.656 25.164 33.704 C 25.09 33.744 25.024 33.797 24.97 33.862 C 24.562 34.513 24.199 35.191 23.881 35.891 C 23.82 36.049 23.045 36.656 23.009 36.863 C 22.973 37.069 22.331 37.106 22.367 37.239 Z M 15.298 35.721 C 15.588 35.721 15.298 36.207 14.729 36.838 C 14.455 37.123 14.135 37.361 13.785 37.543 C 13.523 37.566 13.26 37.566 12.998 37.543 C 12.853 37.543 11.521 36.802 10.988 36.596 C 10.545 36.434 10.164 36.137 9.898 35.745 L 8.228 33.801 C 8.107 33.643 8.031 33.454 8.01 33.255 C 7.938 32.591 7.613 31.981 7.102 31.554 C 7.017 31.481 6.981 31.372 6.751 31.396 C 6.521 31.421 5.467 29.987 5.54 29.732 C 5.613 29.477 5.54 29.1 5.54 28.76 L 5.54 27.776 C 5.54 27.691 5.443 27.655 5.6 27.461 C 5.964 27.011 5.794 26.926 5.782 26.744 C 5.703 26.474 5.703 26.187 5.782 25.918 C 5.864 25.685 5.961 25.457 6.073 25.237 C 6.214 25.015 6.415 24.838 6.654 24.727 C 6.86 24.727 7.005 24.448 7.162 24.29 L 7.344 24.132 C 7.489 24.113 7.635 24.113 7.78 24.132 C 8.074 24.102 8.37 24.102 8.663 24.132 C 9.076 24.152 9.483 24.229 9.874 24.363 L 10.891 25.079 C 11.412 25.432 11.775 25.893 11.908 25.954 C 12.041 26.015 11.981 26.221 11.981 26.367 C 11.981 26.513 13.3 27.582 13.276 27.679 C 13.385 28.031 13.7 28.226 13.446 28.784 C 13.393 28.848 13.393 28.94 13.446 29.003 C 13.727 29.532 13.923 30.102 14.027 30.692 C 14.133 30.972 14.267 31.24 14.426 31.494 L 14.426 31.688 C 14.408 31.764 14.408 31.843 14.426 31.919 C 14.598 32.221 14.744 32.538 14.862 32.866 C 14.991 33.186 15.145 33.494 15.322 33.789 C 15.395 33.911 15.322 34.882 15.407 35.004 C 15.492 35.126 15.165 35.709 15.298 35.721 Z M 13.797 41.928 C 14.051 41.698 14.318 42.196 14.439 43.07 C 14.464 43.477 14.435 43.885 14.354 44.285 L 14.039 44.953 C 14.039 45.026 12.913 45.731 12.55 46.071 C 12.227 46.348 11.853 46.558 11.448 46.69 C 10.662 46.848 9.875 47.067 9.027 47.249 C 8.846 47.303 8.652 47.303 8.47 47.249 C 7.846 47.062 7.176 47.105 6.582 47.371 C 6.473 47.371 6.364 47.371 6.303 47.601 C 6.243 47.832 4.524 48.318 4.27 48.233 C 3.664 47.99 3.059 47.929 2.49 47.723 C 2.405 47.723 2.332 47.723 2.224 47.565 C 1.957 47.091 1.8 47.201 1.63 47.188 C 1.363 47.183 1.1 47.125 0.856 47.018 C 0.722 46.957 0.553 46.69 0.395 46.484 C 0.256 46.154 0.186 45.798 0.19 45.439 C 0.194 45.127 0.136 44.817 0.02 44.528 L 0.02 44.2 C 0.322 43.531 0.731 42.915 1.231 42.378 C 1.231 42.378 3.18 41.601 3.386 41.479 C 3.591 41.357 3.64 41.479 3.773 41.564 C 3.906 41.649 5.371 40.932 5.444 40.932 C 5.783 40.932 6.098 40.714 6.497 41.102 C 6.582 41.175 6.642 41.102 6.715 41.102 C 7.3 41.005 7.897 41.005 8.482 41.102 C 8.783 41.084 9.082 41.047 9.378 40.993 C 9.378 40.993 9.499 40.993 9.56 41.066 C 9.62 41.139 9.705 41.139 9.766 41.127 C 10.468 40.956 11.231 41.127 11.945 41.042 C 12.114 41.042 12.986 41.503 13.156 41.442 C 13.325 41.382 13.712 42.038 13.797 41.928 Z M 15.263 48.561 C 15.13 48.245 15.663 48.355 16.583 48.694 C 17.014 48.874 17.42 49.107 17.793 49.387 C 17.955 49.597 18.105 49.816 18.242 50.043 C 18.302 50.164 18.242 51.452 18.242 51.914 C 18.259 52.332 18.176 52.749 17.999 53.128 C 17.709 53.857 17.467 54.61 17.188 55.339 C 17.116 55.503 16.993 55.639 16.837 55.728 C 16.333 56.075 15.979 56.6 15.845 57.198 C 15.773 57.304 15.773 57.444 15.845 57.55 C 16.038 57.842 15.384 59.299 15.166 59.421 C 14.646 59.712 14.174 60.041 13.677 60.344 C 13.605 60.344 13.677 60.49 13.399 60.441 C 12.866 60.32 12.866 60.441 12.757 60.624 C 12.589 60.803 12.387 60.947 12.164 61.049 C 11.935 61.084 11.702 61.084 11.474 61.049 C 11.135 60.931 10.819 60.754 10.542 60.526 C 10.302 60.327 10.032 60.167 9.743 60.053 L 9.44 59.882 C 9.11 59.249 8.877 58.569 8.75 57.866 C 8.75 57.866 8.871 57.38 8.992 56.87 C 9.113 56.36 9.283 55.874 9.283 55.764 C 9.283 55.655 9.452 55.607 9.573 55.546 C 9.694 55.485 10.009 54.04 10.046 53.991 C 10.082 53.942 10.239 53.396 10.784 53.359 C 10.893 53.359 10.905 53.286 10.929 53.225 C 11.181 52.765 11.513 52.354 11.91 52.011 C 12.074 51.795 12.216 51.563 12.334 51.318 C 12.382 51.287 12.435 51.262 12.491 51.245 C 12.564 51.245 12.648 51.245 12.673 51.136 C 13.062 50.63 13.399 50.084 13.677 49.508 C 13.677 49.363 14.488 48.998 14.525 48.828 C 14.561 48.658 15.312 48.694 15.263 48.561 Z M 56.751 47.929 C 55.928 51.647 55.347 55.437 54.729 59.239 C 54.511 60.624 54.487 62.033 54.281 63.43 C 53.938 65.896 53.627 68.366 53.349 70.84 L 52.635 78.311 C 52.441 80.534 52.405 82.757 52.393 84.968 C 52.393 86.389 52.477 87.798 52.393 89.231 C 52.308 90.665 52.017 92.086 51.727 93.52 C 51.521 94.406 51.133 94.273 50.516 93.52 C 49.66 92.396 49.008 91.129 48.591 89.778 C 48.506 89.426 48.398 89.061 48.337 88.697 L 48.252 87.604 L 48.083 85.429 C 47.984 83.969 47.915 82.507 47.877 81.044 C 47.754 78.098 47.892 75.147 48.288 72.225 C 48.761 68.714 48.652 65.021 48.979 61.413 C 49.148 59.433 49.378 57.441 49.644 55.473 C 49.911 53.505 50.262 51.525 50.625 49.557 C 51.061 47.128 51.594 44.698 52.138 42.268 C 52.986 38.624 54.075 34.98 55.201 31.469 C 55.984 28.657 56.913 25.887 57.986 23.173 C 58.206 22.555 58.469 21.955 58.773 21.375 C 59.017 20.913 59.296 20.47 59.608 20.05 C 59.859 19.772 60.159 19.541 60.492 19.37 C 61.092 19.117 61.768 19.117 62.368 19.37 C 62.69 19.454 63.006 19.559 63.313 19.686 C 64.281 20.16 64.523 21.484 64.051 23.015 C 62.441 27.424 60.819 31.98 59.451 36.851 C 58.458 40.495 57.538 44.139 56.86 47.929 Z M 66.401 23.731 C 66.123 23.646 66.292 23.257 66.728 22.735 C 66.95 22.515 67.208 22.334 67.491 22.2 L 68.096 22.2 C 68.181 22.2 69.307 22.759 69.67 22.881 C 70.038 23.015 70.385 23.204 70.699 23.44 C 71.316 23.889 71.994 24.302 72.66 24.727 C 72.807 24.826 72.927 24.96 73.011 25.116 C 73.307 25.659 73.776 26.087 74.343 26.331 C 74.448 26.391 74.577 26.391 74.682 26.331 C 74.996 26.209 76.389 27.06 76.474 27.278 C 76.691 27.825 77.006 28.274 77.236 28.809 C 77.236 28.881 77.382 28.881 77.236 29.1 C 77.03 29.611 77.236 29.647 77.309 29.781 C 77.461 29.98 77.572 30.207 77.636 30.449 C 77.622 30.688 77.577 30.925 77.503 31.153 C 77.338 31.485 77.112 31.782 76.837 32.028 C 76.607 32.162 76.437 32.514 76.244 32.781 C 76.181 32.875 76.112 32.964 76.038 33.048 C 75.339 33.279 74.605 33.382 73.871 33.352 C 73.798 33.352 72.164 32.259 71.958 32.137 C 71.752 32.016 71.837 31.906 71.8 31.773 C 71.764 31.639 70.457 30.825 70.433 30.764 C 70.239 30.473 69.912 30.339 69.96 29.805 C 69.96 29.729 69.919 29.659 69.852 29.623 C 69.457 29.193 69.123 28.71 68.859 28.189 C 68.683 27.955 68.493 27.732 68.29 27.521 L 68.29 27.351 C 68.29 27.303 68.29 27.193 68.217 27.145 C 67.812 26.574 67.375 26.027 66.91 25.505 C 66.8 25.383 66.583 24.545 66.437 24.411 C 66.292 24.278 66.51 23.755 66.401 23.731 Z M 69.936 18.921 C 69.693 19.078 69.463 18.75 69.294 18.156 C 69.237 17.875 69.237 17.586 69.294 17.305 C 69.415 17.123 69.524 16.965 69.633 16.831 C 69.742 16.698 70.843 16.248 71.231 16.005 C 71.584 15.788 71.968 15.624 72.369 15.519 C 73.156 15.276 73.943 14.972 74.729 14.693 C 74.903 14.627 75.09 14.602 75.274 14.621 C 75.918 14.661 76.561 14.518 77.127 14.207 C 77.224 14.207 77.332 14.147 77.405 13.964 C 77.98 13.505 78.664 13.204 79.39 13.09 C 79.984 13.211 80.601 13.199 81.146 13.296 C 81.231 13.296 81.291 13.223 81.424 13.405 C 81.703 13.831 81.848 13.709 82.03 13.697 C 82.288 13.677 82.548 13.71 82.793 13.794 C 82.978 13.921 83.142 14.077 83.277 14.256 C 83.442 14.551 83.541 14.878 83.567 15.216 C 83.593 15.507 83.671 15.791 83.797 16.054 C 83.797 16.139 83.87 16.272 83.894 16.345 C 83.596 17.017 83.187 17.633 82.684 18.167 C 82.684 18.252 80.674 18.908 80.456 19.018 C 80.238 19.127 80.19 19.018 80.056 18.945 C 79.923 18.872 78.41 19.479 78.337 19.467 C 77.974 19.467 77.659 19.637 77.236 19.334 C 77.174 19.291 77.092 19.291 77.03 19.334 C 76.426 19.401 75.817 19.401 75.214 19.334 C 74.899 19.334 74.597 19.394 74.294 19.419 C 74.233 19.424 74.173 19.424 74.112 19.419 C 74.041 19.402 73.966 19.402 73.894 19.419 C 73.18 19.504 72.417 19.419 71.703 19.552 C 71.533 19.552 70.686 19.309 70.492 19.346 C 70.299 19.382 70.032 18.848 69.936 18.921 Z M 61.098 12.932 C 61.425 13.065 61.098 13.515 60.36 14.001 C 59.981 14.213 59.573 14.368 59.149 14.462 L 58.422 14.462 C 58.338 14.462 57.212 13.782 56.764 13.6 C 56.379 13.422 56.031 13.175 55.735 12.871 C 55.25 12.227 54.718 11.656 54.197 10.964 C 54.083 10.812 54.012 10.631 53.992 10.441 C 53.882 9.795 53.553 9.207 53.059 8.777 C 52.974 8.704 52.938 8.607 52.732 8.632 C 52.527 8.656 51.328 7.332 51.328 7.016 C 51.328 6.36 51.098 5.801 51.026 5.169 C 51.026 5.084 50.904 5.06 51.026 4.866 C 51.34 4.416 51.171 4.331 51.11 4.161 C 51 3.92 50.939 3.66 50.928 3.396 C 50.992 3.164 51.09 2.943 51.219 2.74 C 51.454 2.472 51.743 2.256 52.066 2.108 C 52.347 1.978 52.598 1.792 52.805 1.562 L 53.084 1.367 C 53.814 1.354 54.542 1.461 55.238 1.683 C 55.238 1.683 56.788 3.116 56.982 3.25 C 57.176 3.384 57.066 3.493 57.079 3.639 C 57.091 3.784 58.289 4.853 58.362 4.853 C 58.507 5.169 58.846 5.352 58.677 5.886 C 58.677 5.996 58.677 6.032 58.749 6.081 C 59.087 6.572 59.356 7.107 59.548 7.672 C 59.684 7.942 59.846 8.199 60.033 8.437 L 60.033 8.85 C 60.481 9.409 60.602 10.199 61.037 10.794 C 61.146 10.927 61.037 11.923 61.219 12.081 C 61.401 12.239 61.013 12.895 61.098 12.932 Z M 66.558 12.835 C 66.558 13.163 66.049 13.066 65.347 12.665 C 65.075 12.438 64.838 12.172 64.645 11.875 C 64.56 11.644 64.475 11.425 64.427 11.255 C 64.378 11.086 64.633 9.944 64.633 9.47 C 64.662 9.052 64.76 8.641 64.923 8.255 C 65.323 7.575 65.674 6.834 66.049 6.117 C 66.138 5.953 66.267 5.815 66.424 5.716 C 66.939 5.339 67.321 4.807 67.514 4.198 C 67.514 4.1 67.635 4.016 67.514 3.858 C 67.393 3.7 68.156 2.072 68.362 1.938 C 68.906 1.622 69.306 1.222 69.814 0.881 C 69.887 0.881 69.814 0.723 70.081 0.76 C 70.553 0.845 70.577 0.663 70.698 0.529 C 70.86 0.331 71.062 0.169 71.291 0.055 C 71.499 0.015 71.713 0.015 71.921 0.055 C 72.223 0.138 72.501 0.292 72.732 0.505 C 72.865 0.699 73.18 0.784 73.422 0.918 L 73.688 1.064 C 73.932 1.701 74.075 2.374 74.112 3.056 C 74.112 3.056 73.41 4.987 73.362 5.218 C 73.313 5.449 73.18 5.4 73.059 5.461 C 72.938 5.522 72.478 7.052 72.441 7.101 C 72.211 7.356 72.175 7.72 71.667 7.806 C 71.57 7.806 71.558 7.89 71.521 7.951 C 71.229 8.455 70.866 8.913 70.444 9.312 C 70.264 9.551 70.102 9.802 69.959 10.065 C 69.959 10.065 69.851 10.065 69.802 10.15 C 69.735 10.18 69.674 10.222 69.621 10.271 C 69.294 10.903 68.664 11.34 68.313 11.96 C 68.228 12.106 67.369 12.482 67.272 12.665 C 67.175 12.847 66.545 12.713 66.558 12.835 Z M 57.222 17.281 C 57.465 17.05 57.646 17.524 57.743 18.398 C 57.771 18.806 57.738 19.215 57.646 19.613 C 57.541 19.825 57.42 20.028 57.283 20.22 C 57.222 20.318 56.072 20.779 55.685 20.998 C 55.332 21.182 54.944 21.29 54.547 21.314 C 53.76 21.386 52.985 21.532 52.198 21.617 C 52.015 21.639 51.83 21.605 51.666 21.52 C 51.091 21.277 50.453 21.23 49.85 21.387 C 49.753 21.387 49.644 21.387 49.547 21.557 C 49.45 21.727 47.743 21.945 47.525 21.824 C 46.992 21.544 46.448 21.314 45.903 21.034 C 45.83 21.034 45.746 21.034 45.673 20.864 C 45.516 20.391 45.346 20.463 45.177 20.427 C 44.921 20.366 44.679 20.259 44.462 20.111 C 44.325 19.941 44.218 19.748 44.147 19.54 C 44.078 19.228 44.078 18.905 44.147 18.592 C 44.228 18.325 44.253 18.044 44.22 17.767 L 44.22 17.463 C 44.617 16.944 45.091 16.49 45.624 16.114 L 47.707 15.653 C 47.816 15.653 47.937 15.713 48.046 15.787 C 48.155 15.859 49.656 15.519 49.716 15.519 C 50.031 15.58 50.346 15.422 50.661 15.823 C 50.661 15.896 50.782 15.884 50.854 15.823 C 51.404 15.811 51.952 15.889 52.477 16.054 C 52.754 16.078 53.034 16.078 53.312 16.054 C 53.312 16.054 53.409 16.114 53.457 16.139 C 53.506 16.163 53.59 16.236 53.651 16.236 C 54.309 16.323 54.973 16.355 55.636 16.333 C 55.794 16.333 56.532 16.771 56.714 16.722 C 56.896 16.673 57.126 17.366 57.222 17.281 Z M 83.046 59.543 C 81.642 61.862 80.298 64.256 79.051 66.697 C 78.591 67.584 78.301 68.544 77.841 69.443 L 76.63 71.872 L 75.419 74.217 C 74.571 75.816 73.764 77.436 72.998 79.076 C 72.344 80.509 71.884 82.028 71.364 83.498 C 70.698 85.259 70.068 87.191 69.269 88.976 C 69.015 89.547 68.579 89.426 68.131 88.794 C 67.519 87.897 67.193 86.833 67.199 85.745 C 67.394 81.475 68.518 77.3 70.492 73.512 C 71.028 72.349 71.501 71.156 71.908 69.941 C 72.381 68.726 72.829 67.511 73.361 66.297 C 74.569 63.716 75.844 61.168 77.187 58.656 C 77.998 57.113 78.894 55.582 79.741 54.064 C 81.061 51.744 82.526 49.496 84.003 47.273 C 85.036 45.441 86.202 43.687 87.489 42.025 C 87.799 41.654 88.135 41.305 88.494 40.981 C 89.887 39.766 90.819 39.924 91.63 40.544 C 91.825 40.676 92.011 40.822 92.187 40.981 C 92.671 41.54 92.502 42.426 92.078 43.507 C 90.746 46.544 88.954 49.399 87.235 52.594 C 85.867 54.866 84.415 57.161 83.107 59.567 Z M 94.692 47.602 C 94.486 47.504 94.692 47.213 95.092 46.848 C 95.3 46.697 95.534 46.586 95.782 46.52 C 95.947 46.506 96.113 46.506 96.278 46.52 C 96.351 46.52 97.138 47.164 97.489 47.322 C 97.764 47.476 98.01 47.678 98.215 47.917 C 98.669 48.358 99.137 48.783 99.62 49.193 C 99.716 49.296 99.794 49.415 99.85 49.545 C 100.014 50.012 100.341 50.405 100.77 50.651 C 100.842 50.651 100.891 50.772 101.048 50.736 C 101.205 50.699 102.344 51.525 102.392 51.707 C 102.501 52.181 102.707 52.582 102.84 53.043 C 102.84 53.117 102.949 53.117 102.84 53.287 C 102.61 53.688 102.755 53.736 102.84 53.857 C 102.951 54.033 103.017 54.233 103.034 54.441 C 103.007 54.636 102.946 54.826 102.852 54.999 C 102.673 55.243 102.457 55.456 102.21 55.631 C 101.993 55.704 101.823 55.971 101.629 56.153 C 101.567 56.224 101.498 56.29 101.424 56.348 C 100.839 56.451 100.241 56.451 99.656 56.348 C 99.583 56.348 98.445 55.267 98.227 55.133 C 98.009 54.999 98.155 54.939 98.143 54.817 C 98.131 54.696 97.15 53.882 97.126 53.821 C 97.005 53.566 96.763 53.42 96.847 52.983 L 96.847 52.825 C 96.555 52.448 96.311 52.036 96.121 51.598 C 96.024 51.379 95.867 51.185 95.746 50.966 C 95.624 50.748 95.746 50.869 95.746 50.821 C 95.765 50.766 95.765 50.706 95.746 50.651 C 95.494 50.122 95.215 49.607 94.91 49.108 C 94.825 48.998 94.777 48.282 94.68 48.16 C 94.583 48.039 94.777 47.638 94.692 47.602 Z M 97.889 42.39 C 97.672 42.511 97.538 42.184 97.478 41.625 C 97.472 41.367 97.517 41.111 97.611 40.871 C 97.726 40.744 97.847 40.622 97.974 40.507 C 98.047 40.507 99.076 40.191 99.415 40.021 C 99.731 39.887 100.066 39.801 100.407 39.766 C 101.085 39.669 101.764 39.523 102.441 39.377 C 102.593 39.341 102.75 39.341 102.902 39.377 C 103.421 39.506 103.967 39.467 104.463 39.268 C 104.575 39.259 104.673 39.189 104.717 39.086 C 105.232 38.772 105.822 38.604 106.425 38.6 C 106.909 38.782 107.381 38.843 107.877 39.013 C 107.938 39.013 108.01 39.013 108.083 39.147 C 108.277 39.572 108.41 39.474 108.567 39.499 C 108.788 39.51 109.004 39.572 109.197 39.681 C 109.338 39.819 109.457 39.979 109.548 40.155 C 109.651 40.443 109.696 40.748 109.681 41.054 C 109.652 41.316 109.681 41.581 109.766 41.831 L 109.766 42.111 C 109.446 42.657 109.037 43.146 108.555 43.556 C 108.555 43.629 106.812 43.945 106.618 44.018 C 106.425 44.09 106.4 43.957 106.291 43.896 C 106.182 43.836 104.838 44.164 104.778 44.139 C 104.487 44.139 104.197 44.139 103.882 43.872 C 103.882 43.799 103.761 43.872 103.7 43.872 C 103.184 43.855 102.671 43.774 102.175 43.629 C 101.909 43.629 101.654 43.629 101.388 43.568 C 101.388 43.568 101.303 43.568 101.255 43.495 C 101.199 43.461 101.138 43.436 101.073 43.422 C 100.456 43.422 99.863 43.192 99.221 43.204 C 99.076 43.204 98.41 42.827 98.253 42.827 C 98.095 42.827 97.974 42.353 97.889 42.39 Z M 89.716 35.114 C 89.97 35.284 89.607 35.612 88.917 35.94 C 88.581 36.075 88.225 36.153 87.864 36.17 C 87.647 36.132 87.432 36.079 87.222 36.013 C 87.137 36.013 86.278 35.101 85.902 34.798 C 85.594 34.547 85.328 34.248 85.116 33.911 C 84.801 33.231 84.425 32.575 84.086 31.895 C 84.001 31.743 83.963 31.57 83.978 31.396 C 83.986 30.798 83.78 30.216 83.397 29.757 C 83.397 29.671 83.324 29.574 83.13 29.562 C 82.936 29.55 82.065 28.213 82.077 27.995 C 82.077 27.412 82.004 26.914 81.992 26.379 C 81.992 26.294 81.895 26.27 81.992 26.112 C 82.307 25.748 82.162 25.663 82.113 25.529 C 82.045 25.321 82.008 25.104 82.004 24.885 C 82.069 24.69 82.155 24.503 82.258 24.326 C 82.451 24.081 82.69 23.875 82.96 23.719 C 83.191 23.719 83.384 23.403 83.59 23.221 L 83.82 23.027 C 84.538 23.08 85.238 23.278 85.878 23.61 L 86.12 23.877 C 86.3 24.054 86.466 24.245 86.617 24.448 C 86.968 24.885 87.319 25.335 87.404 25.42 C 87.489 25.505 87.404 25.663 87.404 25.809 C 87.404 25.954 88.421 27.145 88.433 27.206 C 88.517 27.533 88.796 27.764 88.578 28.226 L 88.578 28.432 C 88.821 28.947 88.984 29.496 89.062 30.06 C 89.149 30.33 89.255 30.594 89.377 30.85 L 89.377 31.032 C 89.353 31.099 89.353 31.172 89.377 31.239 C 89.68 31.846 89.655 32.587 89.946 33.219 C 90.019 33.364 89.801 34.239 89.946 34.433 C 90.091 34.628 89.607 35.053 89.716 35.114 Z M 95.493 35.684 C 95.493 36.012 94.936 35.842 94.282 35.356 C 94.021 35.108 93.804 34.816 93.64 34.494 C 93.64 34.251 93.556 34.02 93.531 33.826 C 93.507 33.631 94.004 32.514 94.1 32.016 C 94.207 31.585 94.383 31.175 94.621 30.801 C 95.154 30.133 95.65 29.428 96.171 28.736 C 96.289 28.58 96.442 28.455 96.619 28.371 C 97.216 28.047 97.705 27.553 98.023 26.95 C 98.023 26.853 98.168 26.78 98.108 26.598 C 98.047 26.416 99.088 24.849 99.318 24.739 C 99.924 24.472 100.396 24.108 100.977 23.828 C 101.062 23.828 101.074 23.682 101.267 23.743 C 101.74 23.889 101.788 23.743 101.933 23.585 C 102.137 23.408 102.371 23.268 102.623 23.172 C 102.835 23.133 103.053 23.133 103.265 23.172 C 103.554 23.3 103.807 23.496 104.004 23.743 C 104.088 23.962 104.403 24.095 104.621 24.253 L 104.851 24.436 C 104.966 25.135 104.966 25.85 104.851 26.549 C 104.851 26.549 103.786 28.457 103.64 28.687 C 103.495 28.918 103.435 28.845 103.301 28.906 C 103.168 28.966 102.418 30.461 102.357 30.497 C 102.091 30.74 101.982 31.105 101.449 31.129 C 101.352 31.129 101.316 31.202 101.28 31.263 C 100.885 31.728 100.429 32.136 99.924 32.477 C 99.701 32.701 99.491 32.936 99.294 33.182 C 99.294 33.182 99.185 33.182 99.125 33.255 C 99.064 33.328 98.967 33.255 98.919 33.364 C 98.471 33.959 97.708 34.324 97.285 34.919 C 97.163 35.053 96.219 35.332 96.074 35.502 C 95.928 35.672 95.505 35.551 95.493 35.684 Z M 85.322 38.867 C 85.564 38.685 85.613 39.159 85.552 40.082 C 85.508 40.497 85.415 40.904 85.274 41.297 C 85.139 41.49 84.989 41.673 84.825 41.843 C 84.741 41.928 83.615 42.196 83.24 42.341 C 82.901 42.456 82.54 42.49 82.186 42.439 L 80.104 42.244 C 79.947 42.224 79.799 42.156 79.68 42.05 C 79.26 41.702 78.722 41.532 78.179 41.576 C 78.069 41.55 77.954 41.593 77.888 41.685 C 77.695 41.928 76.278 41.685 76.133 41.576 C 75.746 41.212 75.346 40.896 74.922 40.544 C 74.922 40.544 74.777 40.544 74.765 40.337 C 74.765 39.851 74.583 39.9 74.45 39.827 C 74.255 39.735 74.081 39.603 73.942 39.438 C 73.863 39.248 73.81 39.048 73.784 38.843 C 73.796 38.521 73.866 38.204 73.99 37.908 C 74.099 37.653 74.164 37.382 74.184 37.106 L 74.184 36.802 C 74.642 36.358 75.165 35.985 75.734 35.697 L 77.646 35.697 C 77.743 35.697 77.828 35.806 77.9 35.891 C 77.973 35.976 79.293 35.891 79.341 35.891 C 79.595 36 79.898 35.891 80.068 36.353 C 80.068 36.45 80.164 36.438 80.213 36.438 C 80.68 36.534 81.126 36.71 81.533 36.96 C 81.753 37.054 81.985 37.12 82.223 37.154 C 82.223 37.154 82.295 37.239 82.332 37.276 C 82.368 37.312 82.416 37.385 82.465 37.397 C 82.992 37.602 83.54 37.749 84.099 37.835 C 84.232 37.835 84.741 38.406 84.898 38.393 C 85.056 38.381 85.225 38.952 85.322 38.867 Z" fill="var(--token-9760a20c-2452-4ec9-b3bc-eaeea911af35, rgb(9, 176, 145)) /* {&quot;name&quot;:&quot;Secondary 2 - Mid&quot;} */"/></svg>