<svg xmlns="http://www.w3.org/2000/svg" xlink="http://www.w3.org/1999/xlink" viewBox="0 0 167 110" id="svg3513203611"><path d="M 155.491 4.08 C 165.809 20.956 137.475 61.858 111.172 68.039 C 107.27 68.953 107.27 68.737 111.333 63.954 C 124.27 48.582 130.525 33.963 126.997 27.352 C 122.559 19.129 110.317 19.344 102.351 27.729 C 89.2 41.595 85.618 57.881 93.691 66.91 L 95.615 69.06 L 91.713 72.661 C 81.662 81.906 67.067 89.592 59.315 89.592 L 57.551 89.592 C 69.901 74.758 92.033 46.217 74.819 37.51 C 53.542 26.761 26.971 70.511 44.079 88.033 L 46.485 90.505 C 46.431 90.559 18.204 114.208 9.49 101.953 C 4.358 94.751 7.138 78.089 15.585 64.921 L 17.242 62.342 C 17.669 61.643 17.509 60.783 16.867 60.299 C 10.613 55.892 -1.79 81.046 0.402 93.623 C 3.823 113.348 26.704 115.122 48.944 97.331 L 53.167 93.999 L 56.108 94.536 C 68.564 96.847 85.886 89.807 99.357 76.907 C 103.26 73.145 103.421 73.091 105.238 73.575 C 133.519 81.261 179.762 26.063 163.189 4.241 C 160.463 0.748 151.161 -2.961 155.491 4.08 Z M 119.726 27.89 C 120.421 34.984 114.326 46.916 103.528 59.869 C 99.357 64.868 99.144 64.922 98.235 61.052 C 95.829 50.894 106.949 30.524 116.892 26.923 C 119.565 25.955 119.512 25.955 119.726 27.89 Z M 73.108 42.079 C 76.102 49.926 64.18 73.467 51.029 85.776 L 49.693 87.012 L 48.142 83.894 C 44.614 76.639 46.164 65.405 51.991 56.591 C 58.888 46.11 71.397 37.51 73.108 42.079 Z" fill="var(--token-9760a20c-2452-4ec9-b3bc-eaeea911af35, rgb(158, 194, 134)) /* {&quot;name&quot;:&quot;Secondary 2 - Mid&quot;} */"/></svg>