<svg xmlns="http://www.w3.org/2000/svg" xlink="http://www.w3.org/1999/xlink" viewBox="0 0 129 146" id="svg2303707811"><path d="M 35.293 34.508 C 33.966 35.98 34.63 38.507 36.979 40.728 C 40.682 44.283 43.114 43.755 43.777 39.229 C 44.22 36.257 37.227 32.342 35.293 34.508 Z M 41.124 40.228 C 40.599 40.645 39.825 40.589 39.356 40.089 C 39.3 40.006 36.454 37.118 37.753 35.841 C 38.305 35.285 38.554 35.285 39.3 35.896 C 41.318 37.535 42.064 38.479 41.124 40.228 Z M 70.778 11.903 C 73.21 13.958 79.041 10.875 79.041 7.543 C 79.041 5.738 75.421 4.516 73.514 5.71 C 70.17 7.765 69.009 10.403 70.778 11.903 Z M 74.509 7.404 C 75.974 6.099 76.554 6.238 76.554 7.182 C 76.554 8.07 74.868 9.959 73.459 10.681 C 71.662 11.625 72.215 9.431 74.509 7.404 Z M 105.565 11.513 C 107.997 13.568 113.828 10.486 113.828 7.153 C 113.828 5.348 110.207 4.126 108.301 5.32 C 104.956 7.375 103.796 10.013 105.565 11.513 Z M 109.296 7.014 C 110.76 5.709 111.34 5.848 111.34 6.792 C 111.34 7.681 109.655 9.569 108.245 10.291 C 106.449 11.235 107.002 9.042 109.296 7.014 Z M 36.509 25.677 C 38.913 26.343 43.501 21.955 42.119 20.372 C 40.516 18.567 37.891 18.096 36.73 19.373 C 33.469 22.928 33.413 24.816 36.509 25.677 Z M 36.758 22.511 C 38.222 20.151 39.162 19.9 39.963 20.511 C 40.405 20.844 39.963 21.789 38.637 23.039 C 37.946 23.677 36.896 24.733 36.343 24.316 C 35.763 23.927 36.232 23.344 36.758 22.511 Z M 81.723 35.535 C 78.351 37.84 77.908 43.45 81.114 43.45 C 83.325 43.45 87.608 39.145 87.608 36.924 C 87.608 34.897 83.933 34.008 81.723 35.535 Z M 80.949 42.061 C 80.672 42.033 81.501 39.562 82.303 37.979 C 83.187 36.257 84.872 35.313 85.26 36.34 C 85.591 37.09 82.772 42.172 80.949 42.061 Z M 116.508 35.146 C 113.137 37.45 112.695 43.06 115.901 43.06 C 118.112 43.06 122.395 38.756 122.395 36.534 C 122.395 34.507 118.719 33.618 116.508 35.146 Z M 115.735 41.672 C 115.459 41.644 116.287 39.172 117.089 37.589 C 117.974 35.868 119.659 34.923 120.046 35.951 C 120.377 36.7 117.559 41.783 115.735 41.672 Z M 69.672 23.705 C 67.406 25.982 71.856 33.175 75.531 33.175 C 77.991 33.175 79.649 27.954 77.936 25.566 C 76.25 23.233 71.248 22.094 69.672 23.705 Z M 74.896 30.815 C 74.232 31.231 71.579 27.121 71.579 25.677 C 71.579 24.122 73.514 23.816 74.84 25.205 C 76.305 26.732 76.333 29.898 74.896 30.815 Z M 104.459 23.315 C 102.193 25.593 106.642 32.785 110.318 32.785 C 112.777 32.785 114.435 27.564 112.722 25.176 C 111.036 22.843 106.034 21.705 104.459 23.315 Z M 109.682 30.425 C 109.019 30.841 106.366 26.731 106.366 25.287 C 106.366 23.732 108.301 23.426 109.627 24.815 C 111.092 26.342 111.119 29.508 109.682 30.425 Z M 93.743 18.123 C 93.191 17.957 92.307 17.54 91.781 17.179 C 90.482 16.29 88.907 16.263 88.327 17.151 C 86.42 20.151 87.664 23.316 91.781 25.982 C 95.236 28.204 97.116 27.538 97.862 23.872 C 98.386 21.178 96.811 19.012 93.743 18.123 Z M 94.131 23.955 C 93.965 24.399 93.439 24.511 93.08 24.205 L 92.223 23.4 C 89.819 21.122 89.239 17.901 91.201 17.901 C 91.892 17.901 92.002 17.984 91.726 18.29 C 91.477 18.595 91.699 18.929 92.942 19.984 C 94.655 21.4 94.822 22.039 94.131 23.955 Z M 63.205 39.312 C 62.1 38.895 61.326 38.951 60.636 39.506 C 57.513 42.061 57.734 50.198 60.912 50.448 C 65.859 50.809 67.848 41.062 63.205 39.312 Z M 61.244 47.615 C 60.829 47.199 60.995 44.838 61.603 43.061 C 62.487 40.506 63.15 40.034 63.62 41.673 C 64.035 43.172 61.99 48.337 61.244 47.615 Z M 55.688 12.625 C 56.296 10.653 51.267 8.209 49.802 9.792 C 48.171 11.569 46.541 15.457 46.9 16.818 C 47.674 19.789 54.445 16.568 55.688 12.625 Z M 49 16.679 C 48.144 16.068 50.161 13.375 51.128 11.875 C 52.096 10.375 53.063 10.431 53.063 11.958 C 53.063 12.43 49.857 17.262 49 16.679 Z M 52.648 25.232 C 49.995 26.427 47.757 31.758 49.277 33.286 C 51.46 35.48 55.771 33.591 57.927 29.509 C 59.088 27.287 55.136 24.094 52.648 25.232 Z M 53.726 31.092 C 51.405 33.314 50.437 31.87 51.46 29.926 C 52.869 27.26 55.357 25.843 55.633 27.704 C 55.744 28.426 55.108 29.759 53.726 31.092 Z M 7.26 72.897 C 5.934 74.369 6.597 76.896 8.946 79.117 C 12.649 82.672 15.081 82.144 15.745 77.618 C 16.187 74.646 9.195 70.731 7.26 72.897 Z M 13.092 78.617 C 12.566 79.034 11.793 78.978 11.323 78.478 C 11.268 78.395 8.421 75.507 9.72 74.23 C 10.273 73.674 10.521 73.674 11.268 74.285 C 13.285 75.924 14.031 76.868 13.092 78.617 Z M 42.745 50.292 C 45.177 52.347 51.009 49.264 51.009 45.932 C 51.009 44.127 47.388 42.905 45.481 44.099 C 42.137 46.154 40.977 48.792 42.745 50.292 Z M 46.476 45.793 C 47.941 44.488 48.521 44.626 48.521 45.571 C 48.521 46.459 46.836 48.348 45.426 49.07 C 43.63 50.014 44.182 47.82 46.476 45.793 Z M 8.476 64.066 C 10.881 64.732 15.468 60.344 14.086 58.761 C 12.483 56.956 9.858 56.484 8.697 57.762 C 5.436 61.316 5.381 63.205 8.476 64.066 Z M 8.725 60.9 C 10.19 58.539 11.129 58.289 11.931 58.9 C 12.373 59.233 11.931 60.178 10.604 61.427 C 9.913 62.066 8.863 63.122 8.31 62.705 C 7.73 62.316 8.2 61.733 8.725 60.9 Z M 53.69 73.924 C 50.318 76.229 49.876 81.838 53.082 81.838 C 55.292 81.838 59.576 77.534 59.576 75.313 C 59.576 73.285 55.9 72.397 53.69 73.924 Z M 52.916 80.45 C 52.639 80.422 53.468 77.951 54.27 76.368 C 55.154 74.646 56.84 73.702 57.227 74.729 C 57.559 75.479 54.74 80.561 52.916 80.45 Z M 41.64 62.094 C 39.373 64.371 43.823 71.564 47.499 71.564 C 49.958 71.564 51.616 66.343 49.903 63.955 C 48.217 61.622 43.215 60.483 41.64 62.094 Z M 46.863 69.203 C 46.2 69.62 43.547 65.51 43.547 64.066 C 43.547 62.511 45.481 62.205 46.808 63.594 C 48.272 65.121 48.3 68.287 46.863 69.203 Z M 65.711 56.512 C 65.158 56.346 64.274 55.929 63.749 55.568 C 62.45 54.679 60.875 54.652 60.294 55.54 C 58.387 58.539 59.631 61.705 63.749 64.371 C 67.203 66.593 69.083 65.927 69.829 62.261 C 70.354 59.567 68.778 57.401 65.711 56.512 Z M 66.098 62.344 C 65.932 62.788 65.407 62.9 65.048 62.594 L 64.191 61.789 C 61.786 59.511 61.206 56.29 63.168 56.29 C 63.859 56.29 63.97 56.373 63.693 56.679 C 63.445 56.984 63.666 57.318 64.91 58.373 C 66.623 59.789 66.789 60.428 66.098 62.344 Z M 35.173 77.701 C 34.067 77.284 33.294 77.34 32.603 77.895 C 29.48 80.45 29.701 88.587 32.879 88.837 C 37.826 89.198 39.816 79.45 35.173 77.701 Z M 33.211 86.004 C 32.796 85.588 32.962 83.227 33.57 81.45 C 34.454 78.895 35.117 78.423 35.587 80.061 C 36.002 81.561 33.957 86.726 33.211 86.004 Z M 27.656 51.014 C 28.264 49.042 23.234 46.598 21.769 48.181 C 20.139 49.958 18.508 53.846 18.867 55.207 C 19.641 58.178 26.412 54.957 27.656 51.014 Z M 20.968 55.068 C 20.111 54.457 22.128 51.763 23.096 50.264 C 24.063 48.764 25.03 48.82 25.03 50.347 C 25.03 50.819 21.824 55.651 20.968 55.068 Z M 27.485 16.988 C 28.093 15.016 23.064 12.572 21.599 14.155 C 19.968 15.933 18.338 19.82 18.697 21.181 C 19.471 24.153 26.242 20.931 27.485 16.988 Z M 20.797 21.042 C 19.941 20.431 21.958 17.738 22.925 16.238 C 23.893 14.738 24.86 14.794 24.86 16.321 C 24.86 16.793 21.654 21.625 20.797 21.042 Z M 13.5 27.889 C 14.108 25.918 9.078 23.474 7.614 25.057 C 5.983 26.834 4.353 30.722 4.712 32.083 C 5.486 35.054 12.257 31.833 13.5 27.889 Z M 6.812 31.944 C 5.956 31.333 7.973 28.639 8.94 27.14 C 9.908 25.64 10.875 25.696 10.875 27.223 C 10.875 27.695 7.669 32.527 6.812 31.944 Z M 20.654 90.634 C 21.262 88.662 16.232 86.218 14.767 87.801 C 13.136 89.578 11.506 93.467 11.865 94.827 C 12.639 97.798 19.41 94.577 20.654 90.634 Z M 13.966 94.688 C 13.109 94.077 15.126 91.384 16.094 89.884 C 17.061 88.384 18.028 88.44 18.028 89.968 C 18.028 90.439 14.822 95.271 13.966 94.688 Z M 24.616 63.621 C 21.963 64.816 19.724 70.147 21.244 71.675 C 23.427 73.869 27.739 71.98 29.894 67.898 C 31.055 65.676 27.103 62.483 24.616 63.621 Z M 25.693 69.481 C 23.372 71.703 22.405 70.258 23.427 68.315 C 24.837 65.649 27.324 64.232 27.6 66.093 C 27.711 66.815 27.075 68.148 25.693 69.481 Z M 24.445 29.596 C 21.792 30.79 19.554 36.122 21.074 37.649 C 23.257 39.843 27.568 37.954 29.724 33.872 C 30.885 31.651 26.933 28.457 24.445 29.596 Z M 25.523 35.455 C 23.202 37.677 22.234 36.233 23.257 34.289 C 24.666 31.623 27.154 30.206 27.43 32.067 C 27.541 32.789 26.905 34.122 25.523 35.455 Z M 10.46 40.497 C 7.807 41.691 5.569 47.023 7.089 48.55 C 9.272 50.744 13.583 48.856 15.739 44.774 C 16.9 42.552 12.948 39.359 10.46 40.497 Z M 11.538 46.357 C 9.217 48.579 8.249 47.134 9.272 45.19 C 10.681 42.524 13.169 41.108 13.445 42.969 C 13.556 43.691 12.92 45.024 11.538 46.357 Z M 17.614 103.242 C 14.96 104.436 12.722 109.767 14.242 111.295 C 16.425 113.489 20.736 111.6 22.892 107.518 C 24.053 105.297 20.101 102.103 17.614 103.242 Z M 18.691 109.101 C 16.37 111.323 15.403 109.879 16.425 107.935 C 17.835 105.269 20.322 103.852 20.598 105.713 C 20.709 106.435 20.073 107.769 18.691 109.101 Z M 73.853 84.938 C 74.215 82.987 72.333 81.183 69.174 80.527 C 64.166 79.449 62.37 81.179 64.164 85.383 C 65.337 88.147 73.334 87.802 73.853 84.938 Z M 65.903 83.135 C 66.133 82.504 66.821 82.144 67.482 82.323 C 67.573 82.365 71.503 83.326 71.062 85.097 C 70.881 85.861 70.669 85.993 69.715 85.865 C 67.142 85.531 66.015 85.12 65.903 83.135 Z M 91.994 109.87 C 92.357 107.917 90.474 106.114 87.316 105.458 C 82.308 104.38 80.511 106.109 82.306 110.314 C 83.478 113.078 91.476 112.733 91.994 109.87 Z M 84.045 108.067 C 84.275 107.435 84.963 107.075 85.624 107.253 C 85.715 107.295 89.645 108.257 89.205 110.029 C 89.023 110.793 88.811 110.924 87.857 110.796 C 85.284 110.463 84.156 110.052 84.045 108.067 Z M 55.41 122.873 C 52.267 122.402 48.906 128.097 50.643 130.936 C 51.584 132.473 55.305 131.608 56.307 129.588 C 58.084 126.077 57.698 123.219 55.41 122.873 Z M 54.577 128.668 C 54.009 130.551 53.443 130.739 52.95 129.934 C 52.487 129.177 52.939 126.682 53.763 125.324 C 54.801 123.574 55.474 125.734 54.577 128.668 Z M 77.421 93.101 C 75.025 93.799 73.405 99.952 75.407 100.573 C 77.713 101.267 80.196 100.286 80.519 98.587 C 81.444 93.843 80.506 92.205 77.421 93.101 Z M 78.859 95.929 C 78.842 98.711 78.172 99.418 77.171 99.32 C 76.62 99.269 76.505 98.231 76.983 96.468 C 77.239 95.561 77.583 94.109 78.271 94.173 C 78.968 94.198 78.872 94.943 78.859 95.929 Z M 95.562 118.032 C 93.167 118.73 91.547 124.882 93.549 125.503 C 95.855 126.197 98.337 125.218 98.66 123.519 C 99.585 118.774 98.648 117.136 95.562 118.032 Z M 97.001 120.859 C 96.984 123.641 96.314 124.35 95.312 124.251 C 94.762 124.199 94.647 123.162 95.125 121.4 C 95.38 120.492 95.725 119.04 96.413 119.104 C 97.11 119.13 97.014 119.873 97.001 120.859 Z M 33.767 108.502 C 35.438 104.764 32.89 99.753 30.159 101.441 C 28.276 102.605 26.871 108.526 28.029 110.418 C 29.086 112.145 32.68 110.967 33.767 108.502 Z M 31.025 102.536 C 31.274 102.414 31.857 104.956 31.999 106.726 C 32.143 108.659 31.2 110.35 30.334 109.678 C 29.661 109.214 29.413 103.402 31.025 102.536 Z M 50.199 112.237 C 50.942 109.104 43.403 105.319 40.272 107.254 C 38.176 108.549 39.486 113.87 42.19 115.002 C 44.842 116.102 49.697 114.438 50.199 112.237 Z M 42.044 108.931 C 42.391 108.227 46.794 110.331 47.547 111.561 C 48.357 112.885 46.869 114.164 45.015 113.68 C 42.971 113.15 41.297 110.467 42.044 108.931 Z M 32.605 129.662 C 33.162 129.513 34.133 129.402 34.768 129.434 C 36.338 129.506 37.694 128.701 37.725 127.639 C 37.786 124.08 35.077 122.038 30.179 121.935 C 26.078 121.861 24.825 123.418 26.1 126.933 C 27.057 129.504 29.528 130.52 32.605 129.662 Z M 29.235 124.898 C 29.144 124.433 29.534 124.061 29.999 124.132 L 31.149 124.367 C 34.384 125.042 36.557 127.479 34.886 128.512 C 34.297 128.876 34.16 128.864 34.236 128.458 C 34.289 128.067 33.927 127.899 32.317 127.655 C 30.119 127.35 29.645 126.894 29.235 124.898 Z M 47.571 95.539 C 48.73 95.312 49.36 94.857 49.659 94.02 C 50.987 90.2 46.558 83.386 43.72 84.846 C 39.318 87.142 42.704 96.492 47.571 95.539 Z M 44.914 87.433 C 45.484 87.569 46.574 89.667 46.982 91.502 C 47.561 94.143 47.242 94.894 45.988 93.746 C 44.853 92.687 43.902 87.211 44.914 87.433 Z M 67.887 114.314 C 68.397 116.314 73.955 115.748 74.378 113.629 C 74.84 111.256 74.202 107.086 73.187 106.116 C 70.979 103.993 66.89 110.301 67.887 114.314 Z M 71.47 107.341 C 72.519 107.41 72.204 110.766 72.162 112.553 C 72.12 114.339 71.267 114.801 70.471 113.5 C 70.225 113.098 70.436 107.295 71.47 107.341 Z M 86.028 139.246 C 86.539 141.245 92.097 140.679 92.519 138.559 C 92.982 136.188 92.344 132.018 91.329 131.048 C 89.121 128.924 85.032 135.233 86.028 139.246 Z M 89.612 132.271 C 90.66 132.341 90.346 135.698 90.304 137.484 C 90.261 139.271 89.409 139.733 88.612 138.431 C 88.366 138.029 88.578 132.226 89.612 132.271 Z M 72.759 126.95 C 73.269 128.949 78.828 128.383 79.25 126.263 C 79.713 123.892 79.075 119.722 78.06 118.752 C 75.852 116.628 71.763 122.936 72.759 126.95 Z M 76.343 119.975 C 77.391 120.045 77.077 123.401 77.035 125.188 C 76.992 126.974 76.139 127.436 75.343 126.135 C 75.097 125.733 75.309 119.93 76.343 119.975 Z M 62.632 138.094 C 63.142 140.093 68.701 139.527 69.123 137.407 C 69.586 135.035 68.948 130.865 67.933 129.896 C 65.724 127.772 61.636 134.079 62.632 138.094 Z M 66.216 131.119 C 67.264 131.188 66.95 134.545 66.907 136.332 C 66.865 138.118 66.012 138.58 65.216 137.279 C 64.97 136.877 65.182 131.074 66.216 131.119 Z M 63.904 101.975 C 65.542 99.561 64.669 93.841 62.578 93.34 C 59.575 92.62 56.886 96.499 57.178 101.111 C 57.348 103.614 62.379 104.254 63.904 101.975 Z M 59.931 97.551 C 60.751 94.436 62.327 95.158 62.47 97.352 C 62.659 100.365 61.278 102.88 60.073 101.441 C 59.603 100.884 59.449 99.413 59.931 97.551 Z M 106.053 100.382 C 107.482 101.755 110.013 101.157 112.287 98.857 C 115.923 95.233 115.464 92.776 110.979 91.987 C 108.034 91.463 103.951 98.381 106.053 100.382 Z M 111.901 94.68 C 112.302 95.218 112.225 95.994 111.716 96.452 C 111.631 96.505 108.681 99.287 107.446 97.948 C 106.908 97.377 106.915 97.128 107.543 96.395 C 109.227 94.412 110.186 93.689 111.901 94.68 Z M 84.524 64.129 C 86.633 61.741 83.724 55.801 80.408 55.711 C 78.613 55.662 77.3 59.266 78.436 61.213 C 80.391 64.628 82.984 65.865 84.524 64.129 Z M 80.148 60.26 C 78.889 58.753 79.043 58.174 79.983 58.199 C 80.867 58.223 82.7 59.968 83.38 61.403 C 84.271 63.233 82.103 62.618 80.148 60.26 Z M 97.301 98.923 C 98.029 96.526 93.787 91.799 92.176 93.144 C 90.337 94.706 89.796 97.331 91.036 98.531 C 94.484 101.902 96.361 102.009 97.301 98.923 Z M 94.159 98.588 C 91.85 97.053 91.626 96.102 92.255 95.313 C 92.599 94.878 93.527 95.348 94.734 96.714 C 95.351 97.426 96.372 98.509 95.943 99.053 C 95.54 99.626 94.973 99.138 94.159 98.588 Z M 115.443 123.854 C 116.171 121.457 111.929 116.731 110.317 118.076 C 108.478 119.637 107.938 122.261 109.177 123.462 C 112.626 126.833 114.503 126.94 115.443 123.854 Z M 112.3 123.519 C 109.992 121.983 109.768 121.033 110.397 120.245 C 110.741 119.81 111.668 120.279 112.876 121.645 C 113.493 122.357 114.514 123.44 114.085 123.984 C 113.682 124.556 113.115 124.069 112.3 123.519 Z M 108.329 53.773 C 110.531 57.222 116.099 57.818 116.185 54.597 C 116.245 52.377 112.079 47.958 109.869 47.898 C 107.852 47.843 106.868 51.511 108.329 53.773 Z M 114.8 54.727 C 114.765 55.003 112.328 54.104 110.775 53.256 C 109.087 52.321 108.192 50.602 109.225 50.242 C 109.98 49.929 114.959 52.897 114.8 54.727 Z M 96.234 65.558 C 98.439 67.896 105.714 63.62 105.813 59.928 C 105.88 57.458 100.73 55.651 98.308 57.308 C 95.942 58.938 94.675 63.932 96.234 65.558 Z M 103.448 60.503 C 103.845 61.18 99.684 63.734 98.247 63.696 C 96.7 63.654 96.449 61.702 97.866 60.407 C 99.425 58.977 102.575 59.035 103.448 60.503 Z M 73.825 75.243 C 76.029 77.581 83.305 73.306 83.404 69.614 C 83.471 67.143 78.321 65.337 75.899 66.993 C 73.533 68.624 72.265 73.618 73.825 75.243 Z M 81.039 70.189 C 81.436 70.866 77.275 73.42 75.838 73.381 C 74.291 73.339 74.039 71.388 75.456 70.093 C 77.015 68.663 80.166 68.72 81.039 70.189 Z M 91.331 41.228 C 91.15 41.779 90.712 42.656 90.339 43.174 C 89.42 44.454 89.35 46.036 90.218 46.643 C 93.15 48.639 96.333 47.475 99.096 43.411 C 101.4 40.001 100.788 38.095 97.161 37.247 C 94.496 36.647 92.298 38.171 91.331 41.228 Z M 97.143 40.997 C 97.58 41.175 97.678 41.706 97.363 42.058 L 96.539 42.898 C 94.209 45.251 90.989 45.747 91.042 43.776 C 91.06 43.082 91.146 42.973 91.442 43.259 C 91.739 43.517 92.077 43.304 93.161 42.083 C 94.616 40.4 95.256 40.251 97.143 40.997 Z M 111.586 72.475 C 111.142 73.574 111.176 74.352 111.71 75.061 C 114.167 78.267 122.268 78.265 122.602 75.079 C 123.095 70.12 113.452 67.858 111.586 72.475 Z M 119.793 74.669 C 119.368 75.075 117.023 74.844 115.272 74.186 C 112.754 73.228 112.302 72.55 113.945 72.122 C 115.448 71.746 120.532 73.939 119.793 74.669 Z M 84.835 79.305 C 82.89 78.642 80.322 83.628 81.858 85.142 C 83.582 86.828 87.406 88.571 88.769 88.246 C 91.746 87.549 88.724 80.661 84.835 79.305 Z M 88.687 86.133 C 88.057 86.977 85.431 84.878 83.965 83.865 C 82.5 82.853 82.581 81.884 84.101 81.925 C 84.57 81.938 89.291 85.288 88.687 86.133 Z M 102.976 104.237 C 101.031 103.573 98.464 108.559 100 110.073 C 101.724 111.759 105.547 113.501 106.911 113.177 C 109.887 112.481 106.865 105.592 102.976 104.237 Z M 106.829 111.064 C 106.198 111.908 103.573 109.808 102.107 108.797 C 100.642 107.785 100.723 106.814 102.242 106.855 C 102.712 106.868 107.432 110.219 106.829 111.064 Z M 97.295 82.699 C 98.411 85.396 103.655 87.789 105.216 86.303 C 107.457 84.17 105.695 79.788 101.691 77.512 C 99.512 76.287 96.229 80.17 97.295 82.699 Z M 103.153 81.775 C 105.301 84.166 103.837 85.099 101.932 84.019 C 99.317 82.532 97.976 79.995 99.834 79.768 C 100.555 79.676 101.864 80.351 103.153 81.775 Z" fill="var(--token-9760a20c-2452-4ec9-b3bc-eaeea911af35, rgb(9, 176, 92)) /* {&quot;name&quot;:&quot;Secondary 2 - Mid&quot;} */"/></svg>