<svg xmlns="http://www.w3.org/2000/svg" xlink="http://www.w3.org/1999/xlink" viewBox="0 0 48 43" id="svg3905118418"><path d="M 5.264 0.347 C -0.772 1.924 -1.527 14.384 3.604 26.896 C 5.415 31.27 10.697 38.542 13.967 41.085 C 17.739 44.086 18.745 43.832 27.045 38.288 C 40.023 29.591 46.864 20.793 47.719 11.689 C 48.876 -1.179 36.854 0.144 26.643 14.028 C 25.234 15.961 23.977 17.487 23.876 17.385 C 23.775 17.283 22.719 15.147 21.512 12.655 C 17.236 3.806 10.747 -1.077 5.264 0.347 Z M 11.3 5.789 C 14.419 7.823 16.733 11.18 18.997 17.029 C 20.003 19.674 21.26 22.318 21.763 22.878 C 23.373 24.556 25.083 23.437 28.353 18.555 C 33.031 11.536 40.073 5.636 42.387 6.857 C 43.595 7.518 43.997 9.807 43.393 12.604 C 41.683 20.08 35.848 26.794 23.574 35.236 L 16.783 39.915 L 14.62 37.474 C 7.679 29.591 3.302 17.69 4.258 9.298 C 4.862 4.162 7.025 3.093 11.3 5.789 Z" fill="var(--token-3d5b4fa2-fac7-43a9-b7a0-a9b8c9dd8ed0, rgb(227, 187, 159)) /* {&quot;name&quot;:&quot;Primary 2 - Mid&quot;} */"/></svg>