<svg xmlns="http://www.w3.org/2000/svg" xlink="http://www.w3.org/1999/xlink" viewBox="0 0 48 42" id="svg2044837708"><path d="M 37.007 29.554 C 36.032 30.038 35.087 30.582 34.18 31.184 C 33.857 31.416 33.563 31.671 33.252 31.909 C 32.136 32.715 31.148 33.687 30.323 34.791 C 29.989 35.289 29.717 35.828 29.515 36.393 C 29.362 36.75 29.305 37.129 29.153 37.486 C 29.091 37.673 29.023 37.854 28.955 38.052 C 28.887 38.25 28.836 38.431 28.763 38.618 C 28.689 38.805 28.508 38.811 28.322 38.573 C 28.06 38.221 27.921 37.794 27.926 37.356 C 27.939 36.901 28.035 36.452 28.209 36.031 L 28.457 35.402 L 28.763 34.797 C 29.196 34.016 29.743 33.304 30.386 32.685 C 31.138 31.949 31.861 31.156 32.687 30.494 C 33.592 29.786 34.536 29.13 35.514 28.529 C 36.08 28.155 36.713 27.81 37.318 27.459 C 38.223 26.893 39.173 26.468 40.049 25.919 C 40.699 25.485 41.32 25.01 41.91 24.498 L 42.26 24.169 C 42.707 23.79 42.826 23.767 43.289 23.943 C 43.391 23.983 43.499 24.011 43.595 24.056 C 43.756 24.122 43.863 24.278 43.866 24.452 C 43.869 24.696 43.789 24.934 43.64 25.126 C 43.16 25.772 42.588 26.344 41.944 26.825 C 41.317 27.264 40.667 27.67 39.998 28.042 C 39.031 28.608 38.025 29.084 37.058 29.616 Z" fill="var(--token-3d5b4fa2-fac7-43a9-b7a0-a9b8c9dd8ed0, rgb(252, 187, 136)) /* {&quot;name&quot;:&quot;Primary 2 - Mid&quot;} */"/><path d="M 42.04 10.004 C 41.938 9.862 41.842 9.721 41.734 9.585 L 41.389 9.205 L 40.671 8.464 L 39.874 7.773 L 39.478 7.422 L 39.048 7.11 L 38.177 6.488 C 37.878 6.295 37.561 6.125 37.25 5.922 C 36.627 5.554 35.981 5.226 35.316 4.942 C 32.583 3.815 29.679 3.156 26.727 2.994 C 24.562 2.9 22.393 3.053 20.264 3.453 C 16.476 4.118 12.862 5.543 9.638 7.643 C 8.062 8.678 6.664 9.963 5.499 11.447 C 4.364 12.907 3.589 14.614 3.237 16.43 C 2.944 18.005 3.121 19.632 3.746 21.106 C 4.38 22.647 5.305 24.051 6.472 25.239 C 8.762 27.591 11.596 29.341 14.722 30.335 C 15.242 30.488 15.768 30.652 16.3 30.799 C 16.836 30.943 17.38 31.058 17.928 31.145 C 19.297 31.337 19.155 31.49 17.928 31.813 C 17.063 32.016 16.181 32.139 15.293 32.181 C 14.012 32.19 12.74 31.975 11.533 31.547 C 10.341 31.131 9.19 30.606 8.095 29.978 C 7.529 29.667 7.009 29.321 6.489 28.959 C 5.973 28.571 5.478 28.155 5.007 27.714 C 3.008 25.956 1.49 23.717 0.597 21.208 C 0.145 19.861 -0.021 18.434 0.11 17.019 C 0.191 16.332 0.323 15.653 0.506 14.986 L 0.625 14.499 L 0.8 14.023 L 1.157 13.084 C 2.216 10.682 3.845 8.576 5.901 6.946 C 8.256 5.049 10.878 3.509 13.682 2.377 C 15.079 1.81 16.511 1.33 17.968 0.939 L 19.099 0.673 L 20.23 0.469 C 20.97 0.316 21.728 0.26 22.491 0.169 C 25.787 -0.111 29.105 0.132 32.325 0.888 C 33.936 1.277 35.507 1.815 37.018 2.496 C 38.549 3.169 40 4.01 41.344 5.004 C 42.996 6.264 44.423 7.795 45.562 9.534 C 46.735 11.288 47.507 13.279 47.824 15.365 C 48.088 16.969 48.017 18.609 47.615 20.184 C 47.174 21.768 46.401 23.241 45.347 24.503 C 43.301 26.989 40.632 28.574 38.194 30.126 C 36.412 31.192 34.777 32.488 33.331 33.981 C 32.676 34.686 32.131 35.485 31.714 36.353 C 31.629 36.569 31.516 36.772 31.448 36.993 L 31.381 37.208 C 31.347 37.305 31.313 37.395 31.284 37.503 C 31.214 37.721 31.172 37.948 31.16 38.177 L 31.109 38.918 L 31.109 39.75 C 31.109 40.373 31.109 40.985 31.188 41.625 L 30.725 41.715 C 30.686 41.714 30.648 41.731 30.623 41.76 L 30.561 41.817 L 30.436 41.925 L 30.374 41.976 L 30.289 41.976 L 30.176 41.942 C 30.018 41.896 29.905 41.84 29.769 41.794 C 29.243 41.599 28.74 41.344 28.27 41.036 C 28.018 40.852 27.778 40.651 27.552 40.436 C 27.315 40.226 27.094 39.977 26.879 39.768 C 26.461 39.309 26.077 38.873 25.749 38.454 L 25.522 38.165 L 25.387 37.984 L 25.144 37.633 C 25.005 37.432 24.877 37.224 24.759 37.01 C 24.577 36.69 24.443 36.345 24.363 35.985 C 24.309 35.692 24.309 35.39 24.363 35.096 C 24.385 34.84 24.428 34.587 24.493 34.338 C 24.623 33.993 25.059 34.055 25.664 34.428 C 26.034 34.657 26.377 34.927 26.687 35.232 C 26.879 35.408 27.072 35.606 27.253 35.799 L 27.564 36.133 L 27.728 36.308 L 27.784 36.359 C 27.964 36.524 28.166 36.663 28.384 36.772 C 28.451 36.772 28.525 36.829 28.582 36.772 C 28.638 36.716 28.536 36.512 28.525 36.399 C 28.514 36.285 28.525 36.251 28.525 36.195 L 28.525 35.974 C 28.833 35.055 29.263 34.181 29.803 33.375 C 30.819 31.896 32.057 30.582 33.473 29.48 C 34.824 28.382 36.221 27.47 37.539 26.576 C 38.856 25.681 40.123 24.849 41.191 23.932 C 42.198 23.124 43.041 22.13 43.674 21.004 C 43.966 20.466 44.197 19.896 44.364 19.306 C 44.526 18.707 44.613 18.091 44.624 17.471 C 44.651 16.152 44.434 14.839 43.985 13.599 C 43.762 12.961 43.47 12.35 43.114 11.776 C 42.933 11.481 42.775 11.176 42.588 10.887 L 41.96 10.06 Z" fill="var(--token-3d5b4fa2-fac7-43a9-b7a0-a9b8c9dd8ed0, rgb(252, 187, 136)) /* {&quot;name&quot;:&quot;Primary 2 - Mid&quot;} */"/><path d="M 27.649 17.715 C 27.725 18.174 27.669 18.646 27.485 19.074 C 27.415 19.261 27.324 19.439 27.213 19.606 C 27.151 19.691 27.111 19.77 27.038 19.855 C 26.959 19.946 26.876 20.033 26.789 20.115 C 26.662 20.247 26.52 20.363 26.365 20.461 C 26.211 20.576 26.03 20.65 25.839 20.676 C 25.305 20.768 24.756 20.64 24.318 20.319 C 23.995 20.089 23.719 19.798 23.504 19.464 C 23.296 19.188 23.128 18.883 23.006 18.559 C 22.967 18.442 22.935 18.322 22.91 18.202 L 22.91 17.8 C 22.927 17.675 22.954 17.552 22.989 17.432 C 23.054 17.317 23.147 17.221 23.261 17.154 C 23.402 17.052 23.719 17.33 24.058 17.596 C 24.275 17.783 24.526 17.926 24.799 18.015 C 24.855 17.941 24.94 17.907 24.957 18.015 C 24.974 18.123 25.042 18.281 25.098 18.457 C 25.116 18.53 25.172 18.587 25.245 18.604 C 25.24 18.649 25.24 18.695 25.245 18.74 C 25.241 18.758 25.241 18.778 25.245 18.796 C 25.243 18.807 25.243 18.819 25.245 18.83 L 25.217 18.796 C 25.217 18.796 25.161 18.655 25.166 18.655 C 25.166 18.655 25.172 18.655 25.166 18.655 C 25.163 18.64 25.163 18.624 25.166 18.61 L 25.211 18.564 L 25.24 18.496 C 25.24 18.451 25.296 18.4 25.291 18.383 C 25.285 18.366 25.347 18.315 25.33 18.247 C 25.211 18.092 25.012 18.021 24.821 18.066 C 24.784 18.086 24.75 18.111 24.719 18.139 C 24.704 18.169 24.69 18.199 24.68 18.23 C 24.672 18.209 24.663 18.188 24.652 18.168 C 24.621 18.116 24.583 18.068 24.539 18.026 C 24.525 17.995 24.503 17.968 24.476 17.947 C 24.476 17.947 24.386 17.896 24.408 17.902 C 24.408 17.902 24.431 17.907 24.408 17.902 L 24.454 17.902 C 24.502 17.917 24.553 17.917 24.601 17.902 C 24.678 17.892 24.754 17.873 24.827 17.845 L 24.787 17.845 L 24.657 17.907 C 24.561 17.958 24.448 18.021 24.312 18.106 C 24.177 18.191 24.063 18.264 23.945 18.343 C 23.549 18.626 23.102 18.711 22.774 18.343 C 22.664 18.135 22.591 17.909 22.559 17.675 C 22.561 17.392 22.616 17.111 22.723 16.849 C 22.839 16.619 22.99 16.409 23.17 16.226 C 23.318 16.078 23.486 15.95 23.668 15.847 C 24.243 15.525 24.922 15.443 25.556 15.62 C 26.027 15.72 26.465 15.934 26.834 16.243 C 27.278 16.618 27.586 17.13 27.711 17.698 Z M 17.639 18.955 C 17.805 19.514 17.775 20.114 17.554 20.653 C 17.335 21.163 16.988 21.608 16.548 21.944 C 16.267 22.2 15.936 22.393 15.575 22.511 C 15.42 22.548 15.26 22.563 15.1 22.556 C 14.933 22.558 14.767 22.531 14.608 22.477 C 14.258 22.383 13.945 22.186 13.709 21.91 C 13.348 21.502 13.103 21.003 13.003 20.467 C 12.922 20.049 12.903 19.622 12.946 19.198 C 12.955 18.617 13.268 18.084 13.771 17.794 C 13.935 17.715 14.099 17.97 14.275 18.275 C 14.365 18.423 14.461 18.581 14.552 18.706 C 14.625 18.797 14.691 18.894 14.75 18.995 C 14.818 19.194 14.911 19.384 15.027 19.561 C 15.027 19.606 15.083 19.646 15.078 19.697 C 15.075 19.746 15.075 19.795 15.078 19.844 C 15.075 19.893 15.075 19.942 15.078 19.991 L 15.078 20.133 C 15.071 20.168 15.071 20.205 15.078 20.24 C 15.061 20.26 15.049 20.283 15.044 20.308 C 15.032 20.336 15.022 20.364 15.016 20.393 C 15.1 20.116 15.016 20.319 15.055 20.257 L 15.146 20.257 L 15.264 20.218 C 15.482 20.145 15.643 19.961 15.688 19.736 C 15.697 19.561 15.624 19.392 15.49 19.278 C 15.277 19.06 14.969 18.964 14.671 19.023 C 14.564 19.058 14.485 19.149 14.467 19.261 L 14.467 19.317 L 14.427 19.317 L 14.507 19.351 C 14.558 19.351 14.563 19.351 14.58 19.408 C 14.597 19.464 14.637 19.464 14.637 19.493 C 14.648 19.528 14.648 19.565 14.637 19.6 C 14.595 19.646 14.55 19.688 14.501 19.725 C 14.334 19.839 14.156 19.936 13.969 20.014 L 13.636 20.172 C 13.277 20.35 12.846 20.289 12.55 20.019 C 12.343 19.737 12.22 19.401 12.194 19.051 C 12.175 18.82 12.208 18.588 12.29 18.372 C 12.361 18.158 12.462 17.956 12.59 17.772 C 13.071 17.141 13.828 16.784 14.62 16.815 C 15.278 16.828 15.92 17.024 16.474 17.381 C 17.025 17.738 17.444 18.264 17.668 18.881 Z" fill="var(--token-3d5b4fa2-fac7-43a9-b7a0-a9b8c9dd8ed0, rgb(252, 187, 136)) /* {&quot;name&quot;:&quot;Primary 2 - Mid&quot;} */"/><path d="M 13.868 20.467 C 13.912 20.325 13.947 20.181 13.976 20.036 C 13.976 19.985 13.936 19.963 13.976 19.912 C 14.037 19.726 14.088 19.537 14.129 19.346 C 14.131 19.275 14.096 19.209 14.038 19.17 C 13.965 19.113 13.812 19.108 13.965 18.932 C 14.117 18.757 15.718 17.97 15.819 18.089 C 15.995 18.287 16.009 18.582 15.853 18.796 C 15.751 18.978 15.893 19.057 15.91 19.187 C 15.918 19.328 15.918 19.47 15.91 19.612 C 15.904 19.696 15.904 19.782 15.91 19.866 C 15.91 19.991 15.91 20.127 15.966 20.223 C 16.023 20.319 16.187 20.331 16.306 20.376 L 16.396 20.376 C 16.413 20.376 16.396 20.433 16.283 20.501 L 16.074 20.602 L 15.735 20.755 L 15.441 20.885 C 15.139 21.024 14.822 21.124 14.496 21.186 C 14.055 21.186 13.931 21.027 13.84 20.869 C 13.803 20.74 13.793 20.605 13.812 20.472 Z M 36.747 16.956 C 36.626 17.373 36.417 17.759 36.136 18.089 C 35.976 18.279 35.785 18.442 35.571 18.57 C 35.462 18.636 35.351 18.699 35.237 18.757 C 35.123 18.801 35.006 18.837 34.887 18.864 C 34.576 18.968 34.246 19.003 33.92 18.966 C 33.76 18.932 33.603 18.885 33.45 18.825 C 33.317 18.758 33.189 18.683 33.066 18.598 C 32.868 18.437 32.697 18.246 32.557 18.032 C 32.336 17.686 32.181 17.302 32.099 16.9 C 31.99 16.554 31.959 16.189 32.009 15.829 C 32.017 15.707 32.017 15.584 32.009 15.461 C 32.041 15.346 32.092 15.237 32.161 15.139 C 32.325 14.958 32.45 14.759 32.766 14.776 C 32.91 14.807 33.038 14.887 33.128 15.003 L 33.354 15.246 L 33.552 15.473 C 33.739 15.693 33.959 15.884 34.202 16.039 C 34.149 16.165 34.105 16.296 34.072 16.43 C 34.033 16.554 34.072 16.577 34.072 16.605 C 34.028 16.677 33.993 16.756 33.971 16.837 L 33.971 16.883 C 33.971 16.741 33.937 17.211 33.971 16.56 C 33.972 16.583 33.972 16.605 33.971 16.628 C 33.966 16.646 33.966 16.666 33.971 16.684 C 33.971 16.684 34.005 16.769 33.971 16.684 C 33.971 16.684 34.01 16.645 34.05 16.622 C 34.131 16.509 34.178 16.376 34.186 16.237 C 34.186 16.011 34.186 15.733 34.038 15.671 C 33.892 15.609 33.897 15.829 33.886 15.96 L 33.886 16.016 C 33.886 15.994 33.784 15.977 33.694 15.852 C 33.603 15.728 33.49 15.563 33.326 15.32 L 33.106 14.997 C 32.85 14.677 32.788 14.244 32.942 13.865 C 33.005 13.737 33.091 13.622 33.196 13.525 C 33.32 13.433 33.457 13.36 33.603 13.31 C 33.677 13.31 33.744 13.253 33.824 13.236 C 33.916 13.231 34.008 13.231 34.101 13.236 C 34.288 13.214 34.478 13.214 34.666 13.236 C 35.392 13.406 36.011 13.88 36.363 14.539 C 36.813 15.258 36.973 16.123 36.809 16.956 Z" fill="var(--token-3d5b4fa2-fac7-43a9-b7a0-a9b8c9dd8ed0, rgb(252, 187, 136)) /* {&quot;name&quot;:&quot;Primary 2 - Mid&quot;} */"/></svg>