<svg xmlns="http://www.w3.org/2000/svg" xlink="http://www.w3.org/1999/xlink" viewBox="0 0 45 45" id="svg1601350496"><path d="M 13.022 42.865 L 12.945 42.822 C 12.945 42.822 12.945 42.789 12.884 42.822 L 12.852 42.783 C 12.828 42.734 12.809 42.683 12.797 42.63 L 12.703 42.301 C 12.67 42.192 12.637 42.055 12.604 41.923 C 12.571 41.792 12.604 41.764 12.604 41.677 L 12.648 41.408 C 12.731 41.036 12.824 40.663 12.895 40.313 L 12.978 39.907 L 13.027 39.634 C 13.164 38.895 13.248 38.149 13.28 37.399 C 13.308 36.851 13.247 36.303 13.236 35.755 C 13.177 33.779 12.865 31.818 12.308 29.921 C 12.061 29.064 11.749 28.227 11.373 27.418 C 10.855 26.406 10.391 25.367 9.983 24.306 C 9.868 23.967 10.165 23.846 10.61 23.95 C 11.196 24.092 11.709 24.446 12.049 24.942 C 12.214 25.194 12.379 25.451 12.527 25.72 L 12.764 26.114 C 12.829 26.251 12.891 26.39 12.95 26.53 C 13.206 27.085 13.433 27.651 13.632 28.228 C 14.037 29.389 14.333 30.585 14.516 31.8 C 14.778 33.279 14.962 34.772 15.066 36.27 C 15.089 37.1 15.059 37.931 14.978 38.757 C 14.939 39.168 14.879 39.584 14.813 39.99 L 14.764 40.296 L 14.731 40.428 L 14.659 40.696 L 14.566 41.047 C 14.56 41.076 14.56 41.106 14.566 41.134 L 14.802 41.134 L 15.588 41.003 C 17.099 40.75 18.633 40.651 20.165 40.707 C 21.351 40.717 22.535 40.808 23.709 40.981 C 23.967 41.025 24.225 41.052 24.484 41.118 C 25.44 41.365 25.681 41.628 25.687 42.175 C 25.695 42.301 25.695 42.427 25.687 42.553 C 25.621 42.953 25.137 43.101 24.5 43.03 C 22.555 42.693 20.584 42.536 18.61 42.559 C 17.863 42.58 17.119 42.642 16.379 42.745 L 15.83 42.833 C 15.461 42.898 15.094 42.976 14.731 43.068 C 14.551 43.123 14.367 43.165 14.181 43.194 L 13.912 43.227 L 13.687 43.227 C 13.619 43.223 13.555 43.2 13.5 43.161 L 13.341 43.079 L 13.022 42.898 Z" fill="var(--token-3d5b4fa2-fac7-43a9-b7a0-a9b8c9dd8ed0, rgb(252, 187, 136)) /* {&quot;name&quot;:&quot;Primary 2 - Mid&quot;} */"/><path d="M 13.104 26.103 C 14.133 28.99 14.689 32.024 14.752 35.087 C 14.785 36.182 14.857 37.278 14.818 38.319 C 14.785 39.25 14.73 40.181 14.725 41.019 L 14.725 41.343 C 14.72 41.421 14.72 41.5 14.725 41.578 C 14.722 41.745 14.829 41.894 14.989 41.945 C 15.157 41.962 15.326 41.962 15.494 41.945 L 16.868 41.803 C 17.796 41.688 18.736 41.584 19.681 41.507 C 21.377 41.334 23.082 41.268 24.786 41.31 C 25.926 41.34 27.057 41.525 28.148 41.858 C 28.708 42.058 29.241 42.325 29.736 42.652 C 30.234 43.001 30.657 43.444 30.983 43.956 C 31.385 44.602 30.983 44.722 30.269 44.744 C 29.814 44.761 29.361 44.809 28.912 44.887 C 28.676 44.906 28.439 44.906 28.203 44.887 C 27.967 44.881 27.731 44.854 27.5 44.805 C 27.297 44.75 27.082 44.722 26.868 44.679 C 26.654 44.635 26.439 44.586 26.225 44.536 C 25.772 44.455 25.316 44.396 24.857 44.361 C 23.89 44.287 22.919 44.27 21.95 44.312 C 20.95 44.35 19.939 44.427 18.906 44.525 L 15.527 44.843 C 14.996 44.926 14.454 44.926 13.923 44.843 C 13.803 44.816 13.686 44.781 13.571 44.739 L 13.483 44.701 C 13.483 44.668 13.483 44.701 13.483 44.701 L 13.439 44.701 L 13.269 44.618 C 13.152 44.562 13.044 44.488 12.95 44.399 C 12.851 44.317 12.763 44.223 12.686 44.12 C 12.355 43.716 12.135 43.232 12.049 42.718 C 11.986 42.453 11.945 42.184 11.928 41.912 C 11.907 41.778 11.895 41.643 11.89 41.507 L 11.89 41.211 C 11.846 39.792 11.89 38.511 11.89 37.223 C 11.956 34.451 11.619 31.683 10.89 29.006 C 10.42 27.376 9.762 25.806 8.928 24.328 C 8.802 24.109 8.681 23.884 8.538 23.671 L 8.335 23.342 C 8.225 23.172 8.12 23.008 8.005 22.849 C 7.478 22.17 6.978 21.507 6.483 20.883 L 5.796 19.639 L 5.45 18.801 C 5.45 18.724 5.351 18.68 5.412 18.565 C 5.479 18.485 5.561 18.418 5.653 18.368 C 5.828 18.273 6.012 18.196 6.203 18.138 C 6.611 18.01 7.034 17.935 7.461 17.914 C 8.118 17.882 8.777 17.93 9.423 18.056 C 10.138 18.177 10.846 18.338 11.544 18.538 L 12.093 18.713 L 12.23 18.763 L 12.329 18.796 L 12.527 18.872 C 12.796 18.966 13.061 19.074 13.318 19.195 C 13.84 19.438 14.343 19.718 14.824 20.033 C 15.259 20.309 15.669 20.623 16.049 20.97 C 16.351 21.245 16.621 21.552 16.857 21.885 C 17.009 22.123 17.117 22.387 17.176 22.663 C 17.222 22.868 17.222 23.082 17.176 23.287 C 17.104 23.481 17.008 23.665 16.89 23.835 C 16.806 23.982 16.714 24.125 16.615 24.262 C 16.357 24.569 15.362 24.339 14.555 23.665 C 13.983 23.133 13.356 22.661 12.686 22.258 C 12.355 22.052 12.01 21.869 11.653 21.71 C 11.478 21.622 11.296 21.545 11.104 21.469 L 11.033 21.441 L 10.967 21.441 C 10.868 21.502 10.967 21.556 10.967 21.551 C 10.967 21.551 10.967 21.518 11 21.611 L 11.241 21.995 C 11.406 22.241 11.544 22.515 11.692 22.772 C 12.284 23.829 12.798 24.928 13.23 26.059 Z" fill="var(--token-3d5b4fa2-fac7-43a9-b7a0-a9b8c9dd8ed0, rgb(252, 187, 136)) /* {&quot;name&quot;:&quot;Primary 2 - Mid&quot;} */"/><path d="M 26.758 23.019 C 26.687 22.74 26.621 22.471 26.566 22.175 L 26.478 21.754 L 26.418 21.409 L 26.28 20.466 C 26.198 19.842 26.132 19.217 26.071 18.593 C 26.011 17.968 25.973 17.349 25.934 16.736 L 25.901 16.27 L 25.901 15.881 C 25.901 15.629 25.846 15.498 25.857 15.218 L 25.857 14.725 C 25.862 14.634 25.862 14.543 25.857 14.452 C 25.857 14.408 25.819 14.353 25.797 14.369 C 25.775 14.386 25.764 14.369 25.747 14.402 C 25.597 14.551 25.466 14.719 25.357 14.901 C 25.242 15.065 25.115 15.268 24.978 15.503 L 24.764 15.881 L 24.302 16.769 L 22.363 20.527 C 21.956 21.347 21.501 22.143 21 22.909 C 20.733 23.294 20.441 23.66 20.126 24.005 C 19.789 24.37 19.407 24.69 18.989 24.958 C 18.439 25.309 18.192 24.712 18.126 23.956 C 18.116 23.773 18.116 23.59 18.126 23.408 C 18.124 23.201 18.139 22.994 18.17 22.789 C 18.23 22.37 18.386 21.971 18.626 21.622 C 19.551 20.192 20.4 18.714 21.17 17.196 C 21.593 16.4 22.009 15.6 22.418 14.797 C 22.797 14.03 23.154 13.274 23.516 12.567 C 23.879 11.86 24.242 11.159 24.615 10.595 L 24.879 10.151 L 25.022 9.96 C 25.064 9.912 25.112 9.869 25.165 9.834 L 25.434 9.593 L 25.703 9.341 C 25.78 9.286 25.857 9.253 25.928 9.198 C 26.068 9.104 26.213 9.018 26.363 8.941 L 26.566 8.837 C 26.657 8.777 26.77 8.761 26.874 8.793 C 27.045 8.873 27.191 8.998 27.297 9.154 C 27.409 9.299 27.513 9.449 27.61 9.604 C 27.901 10.09 28.088 10.631 28.159 11.192 C 28.297 12.091 28.346 13.153 28.429 14.145 L 28.632 16.648 C 28.731 17.842 28.863 19.026 29.049 20.192 L 29.247 21.381 C 29.297 21.66 29.363 21.929 29.44 22.252 C 29.489 22.433 29.544 22.619 29.61 22.8 C 29.676 22.981 29.72 23.101 29.78 23.254 C 29.781 23.273 29.793 23.29 29.811 23.297 C 29.829 23.304 29.849 23.3 29.863 23.287 L 29.929 23.211 C 29.967 23.15 30.006 23.096 30.039 23.035 L 30.478 22.274 C 30.626 22.011 30.791 21.726 30.962 21.463 L 31.368 20.817 L 31.863 20.083 C 32.862 18.503 34.107 17.09 35.55 15.898 C 35.88 15.627 36.231 15.382 36.599 15.164 C 37.091 14.84 37.659 14.651 38.247 14.616 C 38.626 14.638 38.971 14.842 39.171 15.164 C 39.292 15.306 39.402 15.458 39.5 15.618 C 39.764 16.166 39.341 16.741 38.588 17.262 C 37.459 18.042 36.434 18.962 35.539 20.001 C 35.068 20.544 34.628 21.113 34.22 21.704 C 34.01 22.009 33.807 22.317 33.61 22.63 L 33.44 22.904 L 33.126 23.452 C 32.918 23.808 32.72 24.175 32.522 24.547 C 32.139 25.348 31.681 26.111 31.154 26.826 C 30.971 27.038 30.746 27.212 30.495 27.336 C 30.323 27.427 30.137 27.488 29.945 27.516 C 29.762 27.535 29.578 27.535 29.396 27.516 C 29.292 27.504 29.189 27.486 29.088 27.462 C 28.997 27.438 28.909 27.405 28.824 27.363 C 28.33 27.152 27.937 26.76 27.725 26.267 C 27.272 25.229 26.904 24.155 26.626 23.057 Z M 33.17 32.458 C 33.412 31.784 33.675 31.121 33.934 30.464 C 34.192 29.806 34.483 29.149 34.725 28.491 C 34.912 28.015 35.027 27.516 35.241 27.045 C 35.956 25.402 36.741 23.759 37.472 22.115 C 37.802 21.392 38.077 20.642 38.34 19.924 C 38.638 18.944 39.092 18.019 39.687 17.185 C 39.884 16.928 40.17 17.081 40.417 17.464 C 40.728 17.933 40.871 18.493 40.824 19.053 L 40.681 19.825 C 40.617 20.063 40.54 20.297 40.45 20.527 C 40.285 21.012 40.102 21.49 39.901 21.962 C 39.533 22.915 39.137 23.857 38.676 24.788 C 38.419 25.359 38.206 25.949 38.038 26.552 C 37.862 27.155 37.698 27.768 37.489 28.365 L 36.851 30.332 L 36.241 32.304 C 36.016 33.12 35.769 33.947 35.555 34.747 C 35.203 35.971 34.944 37.22 34.78 38.483 C 34.75 38.968 34.75 39.455 34.78 39.94 C 34.813 40.422 34.857 40.888 34.879 41.359 C 34.879 41.567 34.917 41.77 34.934 41.967 C 34.994 42.712 34.725 42.964 34.049 43.2 C 33.89 43.249 33.736 43.32 33.577 43.359 C 33.06 43.49 32.582 43.194 32.307 42.553 C 32.225 42.312 32.142 42.071 32.071 41.825 C 32 41.578 31.967 41.343 31.917 41.096 C 31.868 40.85 31.835 40.603 31.802 40.351 C 31.759 40.103 31.741 39.852 31.747 39.601 C 31.766 38.614 31.865 37.63 32.044 36.659 C 32.161 35.941 32.315 35.23 32.505 34.528 C 32.669 33.825 32.867 33.131 33.099 32.447 Z M 7.346 9.658 C 7.422 9.931 7.451 10.214 7.434 10.496 C 7.436 10.78 7.381 11.061 7.274 11.324 C 7.175 11.581 7.052 11.829 6.906 12.063 C 6.744 12.289 6.56 12.498 6.357 12.688 C 6.219 12.83 6.06 12.956 5.917 13.099 C 5.754 13.222 5.584 13.336 5.406 13.438 C 3.973 14.101 2.278 13.811 1.148 12.71 L 0.791 12.31 C 0.679 12.172 0.576 12.027 0.483 11.877 C 0.321 11.57 0.216 11.235 0.175 10.891 C 0.142 10.666 0.142 10.437 0.175 10.211 C 0.222 9.987 0.302 9.771 0.412 9.571 C 0.525 9.397 0.656 9.236 0.802 9.089 C 0.953 8.969 1.119 8.869 1.296 8.793 C 1.522 8.7 1.73 9.094 1.906 9.538 C 1.994 9.747 2.076 9.959 2.153 10.173 C 2.219 10.359 2.324 10.491 2.296 10.54 C 2.269 10.589 2.329 10.611 2.296 10.633 C 2.263 10.655 2.335 10.633 2.346 10.633 L 2.373 10.633 C 2.378 10.644 2.378 10.656 2.373 10.666 C 2.34 10.715 2.313 10.858 2.472 11.104 C 2.551 11.23 2.691 11.305 2.84 11.302 C 2.964 11.284 3.086 11.253 3.203 11.209 C 3.576 11.141 3.887 10.886 4.027 10.535 C 4.084 10.304 4.019 10.061 3.857 9.888 C 3.59 9.565 3.173 9.404 2.758 9.467 C 2.433 9.559 2.173 9.801 2.06 10.118 C 2.044 10.173 2.024 10.226 2 10.277 C 1.964 10.326 1.914 10.362 1.857 10.381 C 1.78 10.393 1.702 10.393 1.626 10.381 C 1.409 10.354 1.198 10.295 0.999 10.206 C 0.873 10.157 0.752 10.124 0.637 10.075 C 0.452 10.001 0.298 9.866 0.203 9.691 C 0.089 9.488 0.043 9.254 0.071 9.023 L 0.153 8.743 C 0.197 8.645 0.263 8.541 0.318 8.437 C 0.436 8.219 0.593 8.024 0.78 7.862 C 0.967 7.687 1.169 7.529 1.384 7.39 C 1.608 7.263 1.842 7.151 2.082 7.056 C 2.564 6.883 3.076 6.807 3.587 6.832 C 4.062 6.859 4.529 6.961 4.972 7.133 C 5.279 7.248 5.569 7.402 5.835 7.593 C 5.949 7.696 6.068 7.793 6.192 7.884 C 6.322 7.966 6.438 8.068 6.538 8.185 C 6.937 8.609 7.234 9.119 7.406 9.675 Z M 28.198 3.781 C 28.159 4.055 28.085 4.324 27.978 4.58 C 27.852 4.824 27.695 5.05 27.511 5.254 C 27.149 5.653 26.72 5.985 26.242 6.235 C 25.89 6.42 25.502 6.526 25.105 6.547 C 23.627 6.613 22.462 4.958 22.44 3.907 C 22.415 3.639 22.415 3.369 22.44 3.101 C 22.458 2.816 22.541 2.539 22.682 2.291 C 22.831 1.943 23.09 1.653 23.418 1.463 C 23.712 1.3 24.052 1.24 24.385 1.294 C 24.583 1.326 24.572 1.661 24.517 2.033 C 24.462 2.405 24.407 2.838 24.385 2.937 C 24.368 2.965 24.364 3 24.375 3.031 C 24.385 3.063 24.409 3.088 24.44 3.101 C 24.485 3.12 24.523 3.155 24.544 3.2 C 24.581 3.28 24.614 3.362 24.643 3.446 L 24.643 3.627 C 24.643 3.688 24.61 3.715 24.605 3.775 C 24.581 3.884 24.636 3.995 24.736 4.044 C 24.83 4.085 24.931 4.109 25.033 4.115 C 25.316 4.13 25.588 4 25.753 3.77 C 25.867 3.598 25.882 3.379 25.791 3.194 C 25.654 2.838 25.322 2.592 24.94 2.564 C 24.786 2.564 24.638 2.63 24.621 2.723 L 24.621 2.756 C 24.621 2.756 24.621 2.789 24.621 2.756 C 24.606 2.734 24.594 2.71 24.583 2.685 L 24.665 2.745 C 24.747 2.806 24.758 2.806 24.813 2.822 L 24.885 2.849 C 24.799 2.891 24.708 2.924 24.616 2.948 C 24.375 3.001 24.133 3.047 23.89 3.085 L 23.544 3.156 C 23.357 3.182 23.167 3.156 22.995 3.079 C 22.87 3.031 22.75 2.971 22.638 2.899 C 22.489 2.816 22.473 2.701 22.412 2.575 C 22.335 2.367 22.303 2.145 22.319 1.924 C 22.353 1.647 22.439 1.38 22.572 1.135 C 22.899 0.587 23.444 0.203 24.072 0.077 C 24.547 -0.023 25.04 -0.004 25.506 0.132 C 25.695 0.187 25.879 0.259 26.055 0.346 C 26.238 0.432 26.41 0.541 26.566 0.669 C 27.665 1.425 28.379 2.619 28.215 3.769 L 28.198 3.78 Z M 43.632 9.719 C 43.213 10.09 42.696 10.335 42.143 10.425 L 41.918 10.453 C 41.863 10.458 41.808 10.458 41.753 10.453 L 41.445 10.453 C 41.188 10.427 40.935 10.37 40.692 10.283 C 40.58 10.241 40.47 10.193 40.363 10.14 C 40.24 10.082 40.124 10.01 40.016 9.927 C 39.462 9.517 39.215 8.811 39.396 8.146 C 39.453 7.909 39.545 7.682 39.67 7.473 C 39.866 7.149 40.092 6.844 40.346 6.563 C 40.55 6.333 40.709 6.092 40.896 5.851 C 41.088 5.47 41.433 5.189 41.846 5.079 C 42.028 5.04 42.159 5.418 42.324 5.791 C 42.489 6.163 42.72 6.53 42.681 6.651 C 42.523 7.134 42.273 7.582 41.945 7.971 C 41.841 8.07 41.824 8.196 41.852 8.223 C 41.852 8.223 41.879 8.25 41.852 8.223 L 41.681 8.223 C 41.588 8.231 41.496 8.249 41.407 8.278 C 41.341 8.29 41.279 8.316 41.225 8.355 C 41.301 8.257 41.352 8.142 41.374 8.02 C 41.392 7.941 41.405 7.861 41.412 7.779 L 41.539 7.779 C 41.511 7.577 41.577 8.059 41.572 8.009 L 41.572 8.037 L 41.572 7.993 C 41.553 7.959 41.537 7.925 41.522 7.889 C 41.648 7.853 41.757 7.773 41.83 7.664 C 41.994 7.467 42.067 7.211 42.033 6.958 C 42.033 6.914 41.989 6.908 41.962 6.897 C 41.934 6.886 41.934 6.897 41.918 6.897 C 41.941 6.887 41.963 6.874 41.984 6.859 C 42.099 6.782 42.066 6.76 42.028 6.859 L 42.028 6.93 C 42.011 6.976 42 7.024 41.995 7.073 C 41.995 7.495 41.94 6.875 41.802 6.295 L 41.698 5.884 C 41.639 5.67 41.63 5.445 41.67 5.227 C 41.691 5.102 41.728 4.98 41.78 4.865 C 41.823 4.76 41.904 4.674 42.006 4.624 C 42.167 4.544 42.342 4.494 42.522 4.476 C 42.62 4.459 42.719 4.45 42.819 4.449 C 42.937 4.458 43.054 4.474 43.17 4.498 C 43.415 4.545 43.645 4.65 43.841 4.805 C 44.053 4.945 44.239 5.121 44.39 5.325 C 44.841 5.959 45.021 6.745 44.89 7.511 C 44.757 8.371 44.344 9.164 43.714 9.768 Z" fill="var(--token-3d5b4fa2-fac7-43a9-b7a0-a9b8c9dd8ed0, rgb(252, 187, 136)) /* {&quot;name&quot;:&quot;Primary 2 - Mid&quot;} */"/></svg>