<svg xmlns="http://www.w3.org/2000/svg" xlink="http://www.w3.org/1999/xlink" viewBox="0 0 20 22" id="svg2340359937"><path d="M 0.186 12.958 C 0.703 15.72 1.902 17.923 3.781 19.568 C 10.096 25.098 19.273 20.459 19.897 11.939 C 20.217 7.556 18.597 4.088 15.037 1.534" fill="transparent" stroke-width="0.05" stroke="rgb(0,17,51)" stroke-miterlimit="10"/><path d="M 15.037 1.535 C 7.277 -3.055 -1.236 3.87 0.186 12.958 M 15.037 1.535 L 13.925 3.706" fill="transparent" stroke-width="0.05" stroke="rgb(251,186,181)" stroke-miterlimit="10"/><path d="M 13.925 3.706 C 7.72 0.748 1.702 5.351 2.529 12.536" fill="transparent" stroke-width="0.05" stroke="rgb(251,186,181)" stroke-miterlimit="10"/><path d="M 2.529 12.536 C 7.677 11.59 11.476 8.646 13.925 3.706" fill="transparent" stroke-width="0.05" stroke="rgb(0,17,51)" stroke-miterlimit="10"/><path d="M 15.037 1.535 L 13.925 3.706 C 7.72 0.748 1.702 5.351 2.529 12.536 C 1.769 12.803 0.988 12.944 0.186 12.958 C -1.236 3.87 7.277 -3.055 15.037 1.534 Z" fill="var(--token-0a2fcbf2-829a-4df1-a073-72e0b2193407, rgb(99, 76, 0)) /* {&quot;name&quot;:&quot;Primary 1 - Dark&quot;} */"/><path d="M 15.037 1.535 C 18.597 4.088 20.217 7.556 19.897 11.939 C 19.273 20.459 10.096 25.098 3.781 19.568 C 1.902 17.923 0.703 15.72 0.186 12.958 C 0.988 12.944 1.769 12.803 2.529 12.536 C 7.677 11.59 11.476 8.646 13.925 3.706 Z" fill="var(--token-9760a20c-2452-4ec9-b3bc-eaeea911af35, rgb(132, 171, 106)) /* {&quot;name&quot;:&quot;Secondary 2 - Mid&quot;} */"/></svg>